<?xml version="1.0" standalone="no"?>
<!DOCTYPE svg PUBLIC "-//W3C//DTD SVG 20010904//EN"
 "http://www.w3.org/TR/2001/REC-SVG-20010904/DTD/svg10.dtd">
<svg version="1.0" xmlns="http://www.w3.org/2000/svg"
 width="1024.000000pt" height="1024.000000pt" viewBox="0 0 1024.000000 1024.000000"
 preserveAspectRatio="xMidYMid meet">
<metadata>
Created by potrace 1.16, written by Peter Selinger 2001-2019
</metadata>
<g transform="translate(0.000000,1024.000000) scale(0.100000,-0.100000)"
fill="#000000" stroke="none">
<path d="M4803 8343 c-27 -3 -43 -9 -43 -18 0 -7 -7 -16 -16 -19 -21 -8 -24
-8 -24 5 0 5 4 8 9 4 5 -3 12 -1 16 5 4 6 -6 10 -24 10 -17 0 -31 -4 -31 -9 0
-4 -11 -6 -25 -3 -14 2 -25 0 -25 -7 0 -5 -8 -8 -17 -4 -15 5 -14 3 2 -10 11
-9 15 -17 9 -17 -7 0 -11 -11 -10 -24 1 -20 4 -21 20 -12 14 8 20 8 23 -1 5
-15 33 -18 33 -3 0 5 7 6 17 3 11 -4 14 -3 9 5 -4 7 -14 12 -22 12 -8 0 -14 5
-14 10 0 6 -8 10 -17 8 -10 -2 -19 5 -21 16 -3 14 0 17 13 12 9 -3 23 -6 32
-6 9 0 13 -6 9 -15 -3 -8 -1 -15 5 -15 6 0 22 -9 36 -20 l26 -20 -25 0 c-54 0
-280 -54 -422 -101 -189 -62 -461 -193 -629 -303 -25 -17 -27 -17 -21 -2 6 15
1 17 -34 13 -31 -4 -42 -1 -47 11 -3 8 0 19 7 23 7 4 10 11 7 14 -15 14 -303
-220 -293 -237 5 -7 2 -8 -6 -3 -35 22 -477 -500 -454 -536 4 -7 3 -9 -4 -5
-21 13 -173 -268 -257 -473 -67 -166 -147 -443 -131 -458 3 -4 6 1 6 10 0 9 8
21 18 26 14 9 15 12 3 20 -12 8 -12 12 2 25 9 9 14 23 11 31 -4 10 0 15 11 15
10 0 13 -5 9 -12 -5 -8 -2 -9 12 -4 52 22 57 21 50 -9 -4 -15 -10 -40 -13 -56
-3 -16 -9 -26 -14 -23 -5 3 -7 10 -4 15 4 5 -1 9 -9 9 -9 0 -16 5 -16 11 0 5
3 8 8 6 10 -7 27 14 28 35 1 10 -4 14 -12 11 -8 -3 -14 -9 -14 -15 0 -5 -7
-16 -15 -24 -11 -12 -12 -20 -3 -39 6 -14 17 -25 25 -25 7 0 13 -7 13 -16 0
-8 -4 -13 -9 -9 -5 3 -12 -4 -16 -15 -3 -11 -11 -20 -16 -20 -6 0 -7 -4 -4
-10 7 -12 26 -14 24 -2 -3 16 1 32 9 32 11 0 -30 -233 -42 -242 -7 -5 -5 -8 4
-8 12 0 12 -2 2 -8 -7 -5 -10 -16 -6 -26 6 -16 5 -17 -15 -5 -23 15 -28 29
-10 29 7 0 8 7 4 18 -4 9 -7 24 -7 33 0 12 -8 16 -29 15 -32 -1 -39 -12 -11
-19 16 -4 16 -5 0 -6 -10 0 -18 -8 -18 -17 0 -9 5 -13 13 -9 6 4 3 0 -7 -9
-18 -14 -19 -32 -20 -253 -1 -265 7 -345 60 -584 161 -731 599 -1346 1245
-1750 110 -68 313 -172 392 -200 l37 -13 0 -213 c0 -117 -2 -213 -4 -213 -2 0
-81 99 -177 220 l-173 220 -78 0 -78 0 0 -360 0 -360 85 0 85 0 0 226 0 226
53 -68 c120 -156 291 -369 301 -376 6 -4 41 -8 79 -8 l67 0 0 321 c0 285 2
320 15 315 79 -30 406 -99 417 -88 4 4 18 36 31 72 24 63 25 64 32 35 4 -16
25 -88 47 -159 l40 -128 30 6 c17 3 36 6 44 6 9 0 14 19 16 66 l3 67 160 -2
c179 -2 184 -4 205 -79 31 -112 -9 -215 -104 -265 -35 -18 -58 -21 -151 -22
l-110 0 -5 34 c-4 28 -7 32 -17 20 -9 -12 -5 -33 20 -104 l32 -90 80 -3 c103
-4 185 12 258 51 160 85 220 287 141 474 -3 7 11 14 38 18 199 31 461 105 642
180 47 19 88 35 91 35 4 0 4 -13 0 -29 -5 -22 0 -35 20 -60 23 -27 33 -31 75
-31 38 0 53 5 74 26 44 45 32 114 -26 138 l-30 13 94 53 c234 133 458 311 662
530 394 421 657 1003 717 1584 15 152 6 512 -16 656 -49 315 -134 581 -270
850 -155 304 -408 627 -650 829 -117 98 -117 98 -115 80 5 -33 -1 -50 -23 -60
-20 -9 -40 1 -162 84 -382 256 -768 397 -1210 442 -33 4 -73 8 -90 10 -16 2
-73 4 -125 4 -63 1 -90 4 -80 11 8 5 12 12 8 15 -3 3 -12 0 -20 -8 -7 -8 -36
-16 -64 -19 -42 -4 -53 -1 -62 13 -7 10 -7 19 -2 21 5 2 11 14 12 28 3 24 1
25 -62 26 -36 0 -84 -1 -107 -3z m337 -133 c6 10 10 11 10 3 0 -9 7 -10 26 -3
14 6 29 8 33 6 4 -3 43 -6 87 -7 186 -4 442 -55 669 -132 155 -53 357 -145
348 -160 -3 -6 -1 -7 5 -3 15 9 93 -34 85 -47 -3 -6 -1 -7 5 -3 6 4 21 2 33
-5 19 -10 20 -13 6 -20 -11 -6 -34 1 -79 26 -150 84 -365 174 -519 219 -140
40 -445 96 -524 96 -19 0 -35 3 -35 8 0 4 -57 6 -127 5 -71 -1 -128 -3 -128
-3 0 -1 -13 -3 -28 -5 -19 -3 -27 0 -24 8 2 8 26 12 65 12 36 -1 62 4 62 10 0
5 5 3 10 -5 9 -13 11 -13 20 0z m-370 -30 c0 -7 6 -7 19 0 12 6 22 6 25 1 6
-10 -6 -13 -114 -31 -281 -48 -616 -177 -890 -342 -146 -88 -156 -95 -237
-161 -42 -34 -78 -55 -85 -51 -6 4 -8 3 -4 -4 6 -11 -81 -92 -99 -92 -5 0 -3
5 5 10 8 5 11 10 5 10 -18 0 99 100 118 100 9 0 17 7 17 15 0 9 11 20 24 24
13 5 26 17 30 26 3 9 12 15 18 13 7 -3 18 5 24 16 5 12 18 20 27 20 9 -1 15 2
14 6 -3 11 78 72 138 104 28 15 64 35 80 45 92 54 196 105 306 149 133 53 362
117 386 108 8 -3 12 -2 9 3 -7 10 139 35 154 26 5 -3 10 -1 10 4 0 6 5 11 10
11 6 0 10 -5 10 -10z m375 -50 c2 -4 -57 -11 -133 -15 -500 -26 -959 -196
-1384 -511 -58 -43 -98 -67 -98 -58 0 8 7 14 15 14 8 0 15 4 15 9 0 20 223
178 354 251 232 127 531 240 706 264 19 3 46 8 60 11 14 3 88 12 165 20 225
23 293 26 300 15z m194 -7 c14 -4 22 -2 18 4 -6 10 173 -13 288 -37 144 -29
455 -133 455 -152 0 -5 5 -6 10 -3 6 3 10 1 10 -5 0 -6 4 -9 9 -6 5 3 14 -1
21 -9 6 -7 18 -11 26 -8 8 3 14 0 14 -6 0 -6 3 -11 8 -10 15 2 52 -14 52 -22
0 -5 9 -9 21 -9 11 0 17 -4 14 -10 -6 -9 7 -14 31 -11 6 1 11 -5 11 -13 0 -10
-30 1 -101 36 -144 72 -301 132 -456 172 -117 30 -185 44 -350 70 -19 4 -87 9
-150 13 -81 5 -106 9 -85 14 30 8 108 3 154 -8z m313 -112 c-10 -6 -4 -14 22
-29 25 -15 38 -31 42 -52 5 -22 19 -38 56 -60 42 -26 49 -35 44 -53 -4 -12 -9
-31 -11 -41 -8 -34 -30 -49 -53 -37 -30 16 -62 14 -62 -5 0 -25 -49 -124 -64
-130 -8 -3 -23 -4 -33 -2 -14 3 -12 7 11 18 30 15 41 39 55 118 12 66 -12 52
-35 -20 -16 -49 -27 -66 -51 -81 -27 -16 -35 -16 -55 -5 l-23 13 25 3 c66 8
66 7 85 92 10 44 23 80 28 80 6 0 6 5 0 13 -18 21 -22 105 -7 111 37 14 -9 73
-48 63 -30 -8 -65 -34 -56 -42 4 -4 17 0 29 9 20 14 24 14 36 -2 12 -16 13
-16 7 1 -7 19 11 24 22 6 11 -18 -11 -32 -33 -20 -15 7 -25 6 -42 -6 -17 -11
-26 -12 -34 -4 -15 15 1 41 34 58 27 14 132 18 111 4z m-1079 -78 c-21 -8 -14
-27 14 -40 31 -15 41 -10 24 11 -23 27 13 25 37 -3 16 -18 25 -22 28 -13 3 6
11 9 17 5 6 -4 8 0 4 10 -3 10 -2 17 3 17 6 0 10 -7 10 -15 0 -9 9 -33 20 -55
18 -36 19 -40 3 -55 -12 -13 -29 -16 -65 -13 -52 5 -53 5 -38 -22 5 -10 12
-37 15 -61 3 -24 8 -51 10 -60 6 -16 -18 -42 -47 -52 -25 -9 -22 0 9 27 26 23
26 23 11 69 -8 26 -11 44 -7 41 5 -3 9 -1 9 4 0 5 -9 12 -20 15 -12 3 -20 14
-20 26 0 15 -6 21 -21 21 -18 0 -20 -4 -14 -22 4 -13 11 -47 17 -76 9 -45 7
-56 -8 -79 -11 -18 -19 -23 -22 -15 -2 7 4 22 13 32 19 21 18 26 -31 151 -19
48 -34 89 -34 93 0 4 10 1 23 -5 21 -12 22 -11 4 8 -15 18 -16 22 -3 32 8 7
21 9 27 5 7 -4 9 -3 5 4 -6 10 8 20 29 20 6 0 4 -2 -2 -5z m287 -42 c16 -12
27 -32 31 -55 3 -20 11 -42 18 -49 15 -15 14 -47 -1 -47 -7 0 -5 -5 5 -11 9
-5 17 -19 17 -29 0 -10 5 -22 10 -25 17 -10 11 -25 -9 -25 -16 0 -20 8 -23 37
-2 30 -10 42 -38 60 -54 35 -61 43 -55 64 4 11 2 19 -5 19 -8 0 -10 -10 -8
-24 7 -36 -19 -21 -27 16 -8 33 1 50 15 28 6 -9 10 -10 10 -3 0 17 -40 43 -56
36 -8 -3 -14 0 -14 7 0 6 5 8 10 5 6 -3 10 -2 10 4 0 5 -6 11 -12 14 -7 2 12
2 42 0 30 -3 66 -13 80 -22z m524 -301 c145 -18 303 -53 316 -69 3 -3 11 -6
18 -7 6 -1 19 -2 27 -2 8 -1 15 -9 15 -18 0 -8 5 -12 10 -9 6 3 10 1 10 -4 0
-6 -9 -11 -21 -11 -13 0 -18 4 -13 12 5 8 2 9 -10 5 -10 -4 -41 0 -69 8 -291
84 -639 98 -917 36 -168 -37 -268 -73 -440 -159 -74 -37 -141 -66 -147 -65 -7
0 -13 -4 -13 -11 -1 -14 -157 -122 -171 -118 -6 1 -8 -2 -4 -7 3 -6 -8 -20
-24 -32 -17 -12 -32 -28 -35 -35 -3 -7 36 19 86 57 158 121 337 219 502 274
89 30 106 29 76 -3 -15 -16 -28 -21 -42 -16 -15 4 -18 3 -13 -6 5 -9 1 -10
-15 -5 -15 5 -20 4 -16 -4 4 -6 1 -11 -8 -11 -34 0 -288 -131 -396 -204 -175
-119 -292 -228 -418 -389 -54 -70 -78 -94 -85 -85 -6 9 -7 8 -3 -5 3 -10 -9
-40 -32 -75 -20 -32 -55 -92 -76 -135 -23 -44 -43 -74 -48 -69 -11 11 71 174
83 166 5 -3 6 3 2 12 -4 11 -8 13 -11 6 -2 -7 -10 -12 -18 -12 -9 0 -12 5 -8
11 3 6 1 14 -5 18 -13 8 32 80 139 223 81 107 297 321 316 314 8 -3 12 -2 9 4
-18 29 422 291 463 275 9 -3 13 -3 9 1 -3 4 16 18 44 30 61 29 158 58 166 50
3 -3 11 1 18 8 7 7 50 20 96 30 248 50 408 56 653 26z m36 -74 c86 -14 186
-38 249 -58 26 -8 30 -13 20 -20 -11 -7 -9 -8 5 -4 10 3 36 1 57 -5 30 -10 36
-15 28 -25 -6 -7 -8 -18 -4 -24 8 -13 2 -13 -29 1 -14 7 -23 16 -19 22 3 5 -3
7 -13 3 -11 -3 -51 3 -89 14 -106 31 -153 39 -157 26 -2 -6 -4 -54 -3 -106 0
-83 4 -102 27 -150 29 -59 104 -142 151 -167 16 -8 30 -13 32 -11 7 6 -43 56
-63 62 -25 8 -92 88 -92 110 0 9 -4 16 -10 16 -5 0 -10 7 -10 15 0 8 -5 15
-11 15 -5 0 -7 4 -4 10 15 24 96 -43 110 -90 19 -64 31 -59 27 12 -5 79 25
219 39 183 4 -11 5 -39 2 -62 -7 -52 27 -151 77 -225 32 -48 131 -134 223
-194 20 -13 52 -46 70 -73 27 -42 43 -55 106 -82 41 -18 90 -46 108 -62 18
-16 33 -25 33 -20 0 20 -48 54 -130 92 -63 29 -90 47 -104 71 -23 41 -75 100
-87 100 -6 0 -20 9 -32 20 -12 11 -52 41 -89 66 -75 51 -113 99 -94 120 9 10
18 6 42 -18 l32 -30 -5 44 c-5 47 25 135 54 160 13 10 13 6 6 -28 -23 -110 3
-176 120 -306 68 -75 105 -106 174 -147 49 -28 110 -70 136 -92 40 -34 47 -46
47 -76 0 -21 -7 -41 -16 -47 -13 -10 -5 -18 48 -53 87 -56 98 -61 120 -55 11
3 24 -1 29 -9 7 -11 9 -11 9 2 0 9 11 24 24 33 39 25 42 68 11 132 -32 65 -82
107 -210 179 -113 63 -235 180 -235 225 0 22 4 28 19 27 11 -1 17 -6 14 -14
-3 -7 12 -34 33 -60 37 -46 39 -46 45 -22 l7 24 1 -27 c1 -19 15 -38 49 -67
26 -23 52 -41 59 -41 6 0 23 14 37 31 14 17 26 27 26 23 0 -4 -11 -20 -25 -34
l-26 -27 65 -32 c82 -40 172 -134 181 -189 11 -61 16 -73 28 -65 7 3 4 -3 -6
-15 -23 -25 -15 -64 11 -56 14 5 15 4 2 -5 -21 -15 -30 -14 -30 4 0 19 -14 19
-30 0 -14 -17 -15 -17 21 -32 60 -26 41 -106 -28 -117 -119 -18 -127 -17 -163
6 -24 15 -51 22 -87 22 -29 1 -53 -2 -53 -6 0 -5 7 -8 16 -8 8 0 12 -5 9 -10
-4 -6 -24 5 -48 25 -23 20 -47 33 -54 31 -7 -3 -23 -2 -35 3 -26 10 -99 -5
-113 -22 -5 -7 -26 -18 -45 -24 l-35 -12 45 5 c42 5 47 3 73 -31 16 -20 47
-74 69 -121 41 -89 65 -112 112 -112 42 1 60 -27 38 -57 -26 -35 -102 -84
-142 -91 l-35 -7 40 37 c37 35 37 36 7 16 -22 -15 -58 -25 -103 -30 -82 -9
-99 -20 -100 -69 -2 -34 -2 -34 -6 -6 -3 17 -11 37 -19 46 -13 14 -10 19 23
41 21 14 54 29 74 32 19 3 44 13 55 21 17 13 16 14 -17 8 -21 -3 -39 -1 -43 5
-4 6 -13 9 -20 6 -8 -3 -30 2 -51 10 -21 9 -41 16 -46 16 -14 0 -11 -17 6 -34
17 -17 19 -26 6 -26 -5 0 -15 15 -22 34 -11 32 -14 33 -48 25 -42 -9 -53 -3
-27 16 27 20 96 28 129 16 16 -6 49 -10 75 -10 l47 2 -40 6 c-52 9 -135 47
-135 62 0 6 7 8 17 4 31 -11 111 -16 117 -6 3 5 -9 31 -27 57 -24 36 -51 59
-98 84 -62 33 -67 34 -160 31 -85 -2 -102 0 -145 21 -27 14 -56 23 -65 21 -23
-6 -204 34 -242 52 -18 9 -40 27 -50 41 l-18 25 33 -21 c26 -15 50 -20 111
-20 87 0 271 -37 344 -70 62 -27 78 -24 23 4 -25 13 -99 40 -165 59 -66 20
-154 51 -195 70 -41 18 -106 41 -144 51 -83 20 -113 35 -146 72 l-25 27 32
-23 c27 -19 51 -25 132 -30 89 -7 109 -12 197 -53 85 -39 207 -77 247 -77 23
0 -18 20 -98 46 -95 32 -141 54 -215 104 -81 55 -151 88 -227 108 -56 14 -69
21 -71 40 -3 17 2 22 17 22 12 0 21 -4 21 -10 0 -16 43 -22 89 -11 65 14 124
-7 202 -75 65 -57 185 -124 221 -124 11 0 28 -5 40 -11 11 -6 22 -9 24 -6 3 2
-44 28 -103 58 -86 43 -123 69 -193 136 -106 101 -161 127 -175 83 -7 -23 -19
-25 -37 -7 -14 15 -51 11 -42 -5 4 -6 -8 -7 -28 -3 -25 5 -39 2 -51 -9 -20
-20 -36 -20 -58 0 -13 12 -22 13 -36 5 -11 -5 -25 -6 -33 -1 -10 6 -25 1 -48
-16 l-33 -26 -39 36 c-58 53 -69 49 -134 -42 -36 -50 -37 -54 -22 -75 42 -58
66 -98 66 -111 0 -7 -22 -31 -50 -52 -27 -21 -50 -41 -50 -44 0 -3 -10 -17
-23 -32 l-23 -27 -17 47 c-10 26 -17 60 -17 75 0 16 -4 26 -10 22 -15 -10 -12
-92 5 -126 15 -29 15 -31 -27 -98 -41 -68 -42 -69 -65 -52 -12 9 -27 30 -33
46 -26 67 -31 71 -25 21 4 -39 12 -56 38 -81 l34 -33 -18 -43 c-23 -56 -23
-69 -1 -70 14 -1 14 -2 -3 -6 -11 -3 -25 -13 -31 -22 -11 -15 -15 -14 -36 7
-14 12 -30 22 -36 22 -7 0 -11 3 -10 8 4 14 -13 52 -23 52 -29 0 37 -104 77
-122 21 -10 23 -16 18 -47 -3 -20 -7 -42 -9 -48 -5 -14 -31 -7 -57 14 -9 8
-22 12 -29 7 -7 -4 -10 -3 -6 3 3 5 -19 22 -50 37 -44 21 -58 25 -64 14 -7
-10 -9 -9 -9 3 0 22 -50 35 -61 17 -7 -10 -9 -9 -9 3 0 11 -20 23 -62 36 -35
11 -62 24 -61 29 1 5 4 26 8 47 6 29 4 37 -8 37 -17 0 -32 -60 -22 -90 3 -10
1 -21 -4 -25 -6 -3 -8 0 -5 8 8 22 -117 63 -128 43 -8 -13 -48 -11 -48 3 1 11
31 46 40 47 6 1 13 2 16 3 4 0 1 8 -6 17 -8 8 -9 14 -4 13 39 -11 165 124 152
163 -3 7 -24 -18 -48 -55 -23 -37 -50 -67 -58 -67 -8 0 -21 -8 -29 -17 -24
-31 28 69 68 130 22 32 39 60 39 63 0 2 -9 4 -20 4 -25 0 -83 -51 -121 -107
-17 -23 -37 -43 -46 -43 -11 0 -14 -6 -9 -25 6 -25 -20 -95 -36 -95 -5 0 -7 4
-4 9 4 5 1 11 -5 13 -12 4 9 61 70 188 41 86 121 195 144 195 6 1 11 6 10 12
-1 6 5 9 15 7 22 -6 172 87 207 127 29 35 31 75 3 92 -25 16 -89 -7 -148 -54
-54 -43 -79 -42 -56 1 12 23 10 28 -18 60 l-31 35 32 -29 32 -29 59 54 c32 30
83 66 112 81 61 31 165 58 222 58 44 0 132 31 159 56 26 24 24 50 -6 70 -20
13 -43 16 -109 12 -50 -3 -91 -10 -101 -18 -10 -8 -19 -10 -25 -4 -14 14 62
66 125 87 27 10 73 17 102 17 32 0 53 4 53 11 0 8 4 8 13 0 8 -6 35 -12 60
-13 26 -2 47 -6 47 -10 0 -5 9 -8 21 -8 16 0 20 4 14 18 -3 9 -9 31 -12 47 -3
17 -9 35 -13 40 -15 22 -18 42 -5 42 8 0 17 -21 23 -51 20 -97 45 -135 55 -83
4 20 4 19 6 -4 1 -21 7 -28 32 -33 45 -9 89 -7 132 5 29 8 37 15 37 33 0 12
-10 31 -22 42 -35 30 -108 58 -94 36 2 -4 -4 -13 -15 -20 -15 -10 -19 -10 -19
2 0 8 6 17 13 19 25 11 -18 28 -60 24 -36 -4 -43 -2 -43 13 0 40 213 35 293
-6 16 -9 31 -13 35 -10 3 3 11 -3 19 -14 18 -26 31 -25 36 3 4 19 4 18 6 -5 1
-23 13 -35 79 -73 83 -49 135 -56 156 -23 8 14 4 24 -24 54 -19 20 -54 45 -78
56 -23 10 -40 24 -36 29 7 12 62 2 132 -23 50 -19 52 -21 52 -56 1 -44 12 -94
33 -143 l16 -36 -67 14 c-198 41 -487 33 -645 -18 -66 -22 -105 -46 -46 -29
65 19 274 40 397 40 150 0 294 -15 365 -39 l53 -17 -33 55 c-18 30 -33 63 -33
72 0 10 -4 21 -10 24 -15 10 -11 101 10 195 10 47 16 88 14 91 -17 29 -450 45
-576 21 -187 -34 -200 -35 -209 -21 -7 11 -9 10 -9 -3 0 -10 -4 -18 -9 -18 -5
0 -16 -3 -25 -6 -17 -7 -21 3 -8 23 10 16 104 40 227 58 55 8 114 16 130 19
59 9 361 -3 445 -18z m-1536 -22 c8 -3 12 -12 9 -20 -3 -10 0 -12 10 -8 24 9
26 -9 4 -31 -11 -11 -17 -14 -13 -7 4 6 3 12 -2 12 -20 0 -20 -28 -1 -33 10
-3 19 -2 19 2 0 5 14 8 30 9 20 0 28 -3 24 -10 -4 -7 -2 -8 5 -4 14 9 40 -11
51 -39 17 -47 21 -65 12 -65 -5 0 -12 13 -15 30 -8 36 -59 71 -99 68 -26 -2
-26 -2 -10 -30 9 -15 12 -31 8 -35 -5 -4 -10 -3 -13 2 -9 26 -25 40 -30 28
-12 -31 -62 28 -55 65 2 6 -1 12 -7 12 -5 0 -16 3 -25 6 -22 9 -20 -12 4 -36
26 -26 25 -51 -4 -72 -24 -18 -30 -8 -12 21 6 9 5 12 -5 9 -8 -3 -14 -12 -14
-20 0 -8 -7 -24 -15 -34 -13 -16 -13 -17 0 -9 12 7 13 6 3 -6 -7 -8 -10 -25
-6 -37 4 -18 2 -21 -13 -15 -11 4 -13 8 -6 11 10 3 10 7 1 18 -6 7 -8 21 -5
30 4 10 2 14 -6 11 -7 -2 -12 -14 -11 -26 2 -13 -3 -21 -12 -21 -22 0 -19 -7
19 -54 19 -23 39 -53 44 -67 13 -32 4 -79 -14 -79 -16 0 -19 16 -4 25 17 11
11 42 -15 73 -13 16 -21 33 -17 37 4 5 3 6 -3 3 -5 -4 -28 10 -50 29 -22 19
-30 30 -19 24 12 -6 24 -8 27 -4 11 10 -3 23 -24 23 -10 0 -18 3 -18 8 4 21
-3 24 -15 6 -14 -18 -17 -18 -58 -4 -50 17 -56 39 -15 58 20 10 27 20 27 43 0
20 4 28 11 23 7 -4 9 -21 5 -43 -3 -20 -2 -31 2 -26 9 12 112 68 112 61 0 -3
9 3 21 15 11 11 27 18 35 15 8 -3 12 -2 9 4 -3 5 8 16 24 24 27 15 30 14 34
-2 4 -13 5 -11 6 6 1 22 25 30 36 12 10 -16 25 -12 19 5 -7 16 -3 18 20 9z
m-745 -111 c-13 -15 -12 -16 9 -11 27 7 28 9 -66 -112 -41 -52 -104 -139 -140
-192 -36 -54 -69 -98 -74 -98 -5 0 -6 -6 -2 -12 5 -8 0 -7 -11 2 -18 14 -18
15 3 18 16 2 22 10 22 28 0 13 6 24 13 24 6 0 4 5 -5 11 -22 12 -23 29 -3 29
8 0 15 -4 15 -10 0 -5 5 -10 10 -10 6 0 10 8 10 18 0 10 4 22 9 28 5 5 5 18 1
29 -5 11 -9 14 -9 7 -1 -10 -4 -10 -15 0 -12 11 -11 14 3 19 20 8 42 -8 35
-26 -3 -7 0 -16 7 -20 9 -6 10 -1 7 18 -5 28 13 54 30 43 6 -3 12 3 15 14 5
21 -11 27 -29 11 -5 -4 -22 -11 -39 -15 -28 -6 -29 -5 -11 9 10 8 23 12 27 9
5 -3 9 -2 9 3 0 10 51 34 60 28 4 -3 10 4 13 14 3 15 0 19 -14 18 -11 -1 -19
-5 -19 -9 0 -17 -18 -7 -23 12 -4 14 2 25 19 36 13 9 24 22 24 29 0 7 7 15 15
19 8 3 15 1 15 -3 0 -5 -5 -11 -12 -13 -8 -3 -6 -7 4 -11 14 -5 16 0 12 30 -4
29 -2 34 11 29 9 -3 13 -2 10 4 -11 17 7 11 20 -7 11 -15 13 -15 24 5 6 12 17
22 23 22 6 0 5 -6 -3 -17z m3027 -1048 c14 -14 36 -49 49 -78 35 -75 49 -89
82 -85 26 3 28 1 27 -34 -1 -33 1 -36 17 -27 10 5 23 17 28 27 9 14 10 12 11
-13 0 -17 -5 -36 -11 -42 -15 -15 -130 -4 -151 15 -23 19 -23 36 -2 28 20 -8
54 2 54 14 0 5 -7 7 -15 4 -38 -15 -65 6 -100 78 -19 39 -44 77 -55 85 -23 16
-26 39 -7 46 27 11 49 6 73 -18z m248 -30 c21 -14 41 -17 99 -13 39 3 79 7 87
9 10 3 14 -2 12 -16 -6 -31 -102 -117 -102 -91 0 3 4 16 10 30 14 39 -3 40
-76 6 -68 -33 -87 -33 -66 0 18 30 14 49 -13 62 -33 15 -33 40 -1 34 13 -2 36
-12 50 -21z m-759 -16 c39 -5 98 -7 133 -3 48 5 75 2 108 -11 48 -18 52 -26
28 -46 -8 -7 -13 -21 -11 -31 3 -10 2 -18 -3 -18 -4 0 -5 -10 -3 -22 4 -24
-20 -68 -32 -57 -3 4 0 26 6 51 19 70 10 80 -59 72 -64 -7 -216 17 -264 42
-41 21 -34 -1 9 -27 52 -33 104 -80 98 -89 -6 -9 13 -25 30 -25 11 0 87 -106
80 -113 -3 -3 3 -11 13 -18 14 -11 15 -15 3 -26 -8 -7 -11 -8 -7 -1 3 6 3 13
-1 15 -5 1 -25 29 -46 60 -21 31 -77 93 -123 138 -70 67 -89 80 -107 74 -19
-6 -20 -5 -8 10 11 13 11 19 0 33 -13 15 -10 16 36 9 28 -4 82 -12 120 -17z
m1125 -603 c0 -2 -11 -24 -25 -49 -30 -52 -34 -128 -16 -239 14 -84 1 -181
-34 -250 -13 -26 -61 -94 -106 -150 -79 -99 -109 -150 -109 -183 0 -14 6 -13
41 7 55 30 131 113 163 176 15 29 28 52 30 52 11 0 -19 -122 -44 -177 -35 -76
-164 -217 -233 -252 -63 -33 -92 -60 -79 -73 30 -30 179 39 232 107 19 25 36
41 38 35 12 -34 -101 -170 -183 -222 -63 -39 -234 -88 -309 -88 -18 0 -16 4
11 28 44 38 128 152 163 222 16 33 50 117 74 189 50 144 51 140 -32 97 -37
-19 -157 -146 -180 -191 l-18 -35 -2 46 c-1 25 -6 62 -11 82 -5 20 -12 73 -16
117 -6 68 -3 89 15 138 20 54 67 123 77 113 2 -2 -2 -17 -10 -33 -22 -44 -28
-102 -16 -171 12 -66 26 -87 33 -50 2 13 10 50 16 83 13 67 52 159 79 190 15
17 27 65 13 50 -3 -3 -12 1 -20 8 -12 9 -16 9 -19 0 -3 -7 -9 -13 -15 -13 -6
0 -3 9 6 19 20 22 54 17 65 -11 6 -18 9 -17 48 11 55 40 81 80 93 142 12 64
17 70 27 33 21 -80 2 -142 -72 -229 -60 -71 -72 -94 -79 -145 -7 -49 0 -45 36
19 9 17 39 44 65 60 67 41 112 79 128 111 17 34 45 188 46 260 0 30 3 49 6 42
3 -9 16 5 33 35 31 53 65 93 80 93 6 0 10 -2 10 -4z m-2864 -266 c10 0 14 -12
14 -40 0 -43 30 -192 57 -278 9 -29 14 -55 11 -57 -2 -3 -20 6 -38 20 -19 14
-44 25 -57 25 -27 0 -27 -1 -8 70 16 59 12 113 -11 144 -14 19 -14 19 -37 -3
-13 -12 -30 -41 -36 -64 -7 -23 -17 -50 -22 -60 -5 -10 -7 -23 -3 -29 4 -7 3
-8 -4 -4 -7 4 -12 3 -12 -2 0 -6 7 -12 15 -16 8 -3 15 -12 15 -20 0 -10 -6
-13 -15 -9 -9 3 -14 8 -11 10 3 3 -5 14 -17 23 -19 16 -20 19 -6 25 16 6 18
53 4 75 -3 5 -1 11 4 14 4 3 12 37 15 76 4 39 14 93 22 120 l15 49 45 -34 c25
-19 52 -35 60 -35z m148 -158 c65 -61 102 -88 186 -129 58 -29 117 -55 131
-58 19 -5 33 -20 49 -56 13 -27 20 -52 17 -55 -4 -4 -29 -9 -57 -12 -27 -2
-50 -8 -50 -12 0 -15 52 -21 86 -10 35 12 54 7 54 -13 0 -6 14 -26 32 -44 30
-31 31 -34 16 -50 -18 -18 -106 -35 -114 -22 -3 5 -18 6 -35 2 -42 -8 -74 12
-110 70 -27 43 -32 47 -42 33 -11 -15 -15 -14 -35 14 -13 17 -49 42 -86 59
-60 27 -63 30 -75 77 -8 27 -17 63 -22 79 -31 113 -46 205 -33 205 4 0 43 -35
88 -78z m2295 -434 c-21 -118 -86 -240 -203 -385 -118 -146 -187 -204 -328
-275 -56 -27 -225 -88 -247 -88 -6 0 -11 6 -11 13 0 31 54 71 180 133 155 76
320 181 320 203 0 9 8 30 18 46 10 17 31 61 46 99 47 119 180 295 222 296 8 0
9 -13 3 -42z m-1517 -409 c56 -28 81 -85 33 -73 -33 8 -60 -13 -43 -33 9 -11
9 -16 -1 -22 -21 -14 -2 -78 31 -106 17 -14 36 -24 42 -22 15 5 14 53 -1 50
-17 -4 -16 18 0 41 17 23 48 15 82 -22 25 -26 25 -26 25 -4 0 12 5 22 10 22
13 0 13 -23 0 -36 -14 -14 22 -99 44 -107 10 -4 22 2 32 18 9 13 32 33 51 45
l35 21 -5 -23 c-3 -13 -11 -47 -18 -76 l-12 -53 -41 6 c-99 16 -192 38 -259
61 -40 14 -76 26 -82 28 -29 9 -138 63 -198 99 -63 37 -68 42 -51 54 10 7 28
13 41 13 16 0 30 10 41 30 9 16 20 30 25 30 4 0 7 7 7 15 0 8 6 15 13 15 8 0
24 11 37 25 16 17 27 22 35 15 14 -12 45 -3 45 12 0 11 31 3 82 -23z m-286
-211 c144 -87 322 -153 495 -183 51 -9 94 -17 95 -18 1 -1 -2 -29 -7 -61 -13
-82 -10 -87 53 -85 32 1 71 -6 97 -16 40 -17 42 -19 22 -27 -13 -4 -32 -6 -44
-4 -12 3 -34 7 -49 10 -23 5 -26 3 -21 -11 5 -15 3 -15 -18 3 -23 20 -109 59
-109 49 0 -3 -8 2 -17 9 -60 49 -121 90 -187 126 -70 39 -106 46 -106 21 0
-10 98 -94 136 -118 16 -10 14 -11 -18 -8 -91 7 -265 123 -320 213 -28 46 -37
58 -67 88 -13 13 -21 30 -17 39 3 8 7 15 10 15 2 0 35 -19 72 -42z m1414 -6
c0 -5 -13 -21 -30 -37 -16 -16 -30 -32 -30 -37 0 -13 34 -9 75 8 62 26 57 3
-10 -42 -48 -32 -142 -58 -200 -55 -39 1 -152 -29 -165 -44 -20 -24 19 -40 92
-39 135 3 46 -46 -98 -54 -80 -4 -102 -1 -178 22 -47 15 -86 31 -86 36 0 8 22
16 313 113 92 31 184 66 205 79 88 55 112 65 112 50z"/>
<path d="M4662 7019 c-87 -20 -137 -42 -212 -92 -79 -53 -178 -135 -201 -168
l-22 -31 44 27 c24 15 76 54 115 86 73 60 202 130 312 169 34 13 62 24 62 26
0 5 -4 5 -98 -17z"/>
<path d="M5030 7025 c0 -11 42 -44 83 -66 21 -11 73 -26 115 -34 133 -23 126
-30 -38 -35 -154 -6 -162 -5 -275 31 l-30 9 25 -19 c51 -40 129 -53 275 -45
127 6 137 5 177 -16 24 -12 80 -57 125 -101 78 -75 161 -127 228 -143 39 -10
34 -6 -49 39 -88 47 -146 94 -192 156 -20 28 -44 49 -54 49 -10 0 -22 4 -25
10 -4 6 1 7 11 3 12 -4 15 -3 10 5 -14 24 -87 53 -177 71 -49 10 -93 22 -97
26 -13 13 163 -6 229 -26 53 -15 74 -27 106 -62 23 -24 46 -54 53 -66 36 -69
141 -124 286 -151 27 -5 63 -12 79 -15 l30 -7 -31 21 c-38 26 -74 88 -57 99 8
5 9 13 3 22 -7 11 -11 8 -21 -12 -10 -23 -9 -30 10 -54 31 -39 26 -46 -21 -28
-64 25 -125 97 -149 177 -10 36 1 35 93 -7 84 -38 148 -92 148 -125 0 -12 4
-19 10 -16 22 13 8 50 -33 90 -29 28 -70 52 -128 74 -46 18 -113 48 -149 67
-146 74 -249 89 -371 55 -78 -22 -129 -20 -159 4 -23 18 -40 27 -40 20z m422
-46 c83 -27 134 -63 174 -124 18 -27 47 -69 64 -92 35 -49 36 -53 13 -53 -35
1 -112 60 -168 130 -31 38 -66 77 -78 85 -38 25 -109 46 -177 52 -49 5 -59 8
-40 14 51 14 149 9 212 -12z"/>
<path d="M5910 6482 c0 -5 18 -25 40 -45 22 -19 40 -40 40 -47 0 -12 -34 -10
-75 4 -17 7 -17 5 4 -13 27 -24 76 -28 85 -6 9 24 68 55 106 55 19 0 51 -8 70
-19 19 -10 58 -26 87 -35 47 -16 56 -16 105 -1 72 21 148 10 148 -21 0 -16 16
-19 25 -5 3 5 -7 19 -22 31 -24 19 -36 21 -93 15 -141 -13 -151 -12 -234 28
-43 20 -86 37 -96 37 -10 0 -23 7 -30 15 -7 8 -17 15 -23 15 -5 0 -2 -9 8 -20
14 -16 15 -20 3 -20 -8 0 -23 7 -34 15 -28 21 -37 18 -20 -7 36 -50 5 -52 -52
-2 -23 19 -42 31 -42 26z"/>
<path d="M6600 2765 l0 -385 80 0 80 0 0 385 0 385 -80 0 -80 0 0 -385z"/>
<path d="M2850 2958 c32 -79 99 -240 148 -358 l91 -215 85 -3 85 -3 19 38 c22
42 265 625 276 661 7 22 6 22 -77 22 l-84 0 -104 -254 c-57 -140 -107 -252
-110 -248 -3 4 -50 118 -105 254 l-99 248 -92 0 -92 0 59 -142z"/>
<path d="M5735 2926 c-22 -7 -54 -20 -72 -29 l-32 -17 23 -51 c13 -27 26 -52
29 -55 3 -3 19 2 37 11 44 23 126 34 166 23 36 -9 74 -50 74 -78 0 -15 -15
-18 -108 -23 -162 -8 -218 -38 -242 -128 -15 -53 3 -114 44 -155 60 -60 195
-70 271 -18 44 30 45 30 45 -1 0 -24 2 -25 75 -25 l75 0 0 188 c0 103 -5 204
-11 225 -15 54 -71 112 -126 131 -56 19 -191 20 -248 2z m225 -349 c0 -77
-121 -123 -182 -69 -23 19 -23 60 -1 84 13 15 31 18 100 18 l83 0 0 -33z"/>
<path d="M6278 2878 c-1 -35 -2 -161 0 -280 l3 -218 80 0 79 0 -2 278 -3 277
-77 3 -76 3 -4 -63z"/>
<path d="M6840 2936 c0 -2 54 -130 120 -285 130 -305 130 -305 70 -336 -38
-19 -48 -19 -95 5 -21 11 -40 19 -41 17 -1 -1 -13 -28 -27 -59 l-25 -57 21
-14 c57 -36 143 -47 208 -26 86 29 117 76 217 324 33 83 85 212 116 288 31 76
56 140 56 143 0 2 -35 4 -78 4 l-78 0 -74 -186 c-44 -110 -77 -180 -81 -172
-4 7 -33 78 -64 158 -86 218 -71 200 -165 200 -44 0 -80 -2 -80 -4z"/>
<path d="M3624 2096 c-21 -9 -36 -27 -48 -56 -42 -104 55 -196 154 -145 41 21
60 53 60 102 0 84 -86 135 -166 99z m109 -26 c51 -40 43 -126 -15 -156 -92
-47 -172 73 -99 147 35 35 77 38 114 9z"/>
<path d="M3870 1995 c0 -70 4 -115 10 -115 6 0 10 31 10 73 0 122 6 120 119
-40 23 -34 58 -46 47 -17 -3 9 -6 58 -6 110 0 116 -18 126 -22 12 l-3 -83 -64
88 c-36 48 -71 87 -78 87 -10 0 -13 -27 -13 -115z"/>
<path d="M4870 1996 c0 -71 4 -116 10 -116 6 0 10 35 10 85 0 47 3 85 8 85 4
-1 34 -37 67 -82 33 -45 66 -84 73 -86 9 -3 12 24 12 113 0 89 -3 116 -12 112
-9 -3 -12 -27 -10 -87 2 -58 0 -81 -8 -78 -7 2 -37 39 -68 82 -32 44 -63 81
-69 84 -10 3 -13 -24 -13 -112z"/>
<path d="M5260 1995 c0 -70 4 -115 10 -115 6 0 10 35 10 85 0 47 4 85 8 85 5
0 19 -22 32 -50 13 -27 31 -61 41 -76 l18 -27 37 76 c21 43 42 77 46 77 4 0 8
-38 8 -85 0 -50 4 -85 10 -85 6 0 10 45 10 115 0 144 -12 150 -70 35 -22 -44
-42 -80 -45 -80 -2 0 -21 32 -41 70 -20 39 -45 75 -55 81 -18 9 -19 4 -19
-106z"/>
<path d="M5630 2099 c-82 -30 -76 -173 9 -208 99 -42 189 67 138 167 -22 45
-88 63 -147 41z m111 -38 c73 -74 -7 -194 -99 -147 -58 30 -66 116 -15 156 37
29 79 26 114 -9z"/>
<path d="M6119 2106 c-8 -9 3 -226 12 -226 5 0 9 38 9 85 0 47 3 85 8 85 4 0
35 -39 70 -85 34 -47 67 -85 72 -85 6 0 10 45 10 110 0 67 -4 110 -10 110 -6
0 -10 -32 -10 -76 0 -55 -3 -75 -12 -72 -7 3 -39 39 -71 81 -55 72 -67 83 -78
73z"/>
<path d="M6678 2000 c-29 -69 -41 -110 -34 -110 7 0 18 11 24 25 11 24 16 26
74 23 57 -3 64 -5 76 -30 14 -30 38 -39 28 -10 -43 114 -92 212 -106 212 -11
0 -30 -34 -62 -110z"/>
</g>
</svg>
