<?xml version="1.0" encoding="UTF-8"?>
<svg version="1.1" xmlns="http://www.w3.org/2000/svg" width="1024" height="1024">
<path d="M0 0 C337.92 0 675.84 0 1024 0 C1024 337.92 1024 675.84 1024 1024 C686.08 1024 348.16 1024 0 1024 C0 686.08 0 348.16 0 0 Z " fill="#F7F7F7" transform="translate(0,0)"/>
<path d="M0 0 C2.12906922 0.49638412 4.26033785 0.95156525 6.40234375 1.38769531 C44.61337795 9.79738874 82.24270457 29.43447112 113.43359375 52.56738281 C114.01834473 52.99905762 114.6030957 53.43073242 115.20556641 53.87548828 C119.00933235 56.69827721 122.73782422 59.60496535 126.43359375 62.56738281 C127.43519531 63.36273438 128.43679688 64.15808594 129.46875 64.97753906 C137.8837405 71.84185244 145.55579403 79.47822287 153.24609375 87.12988281 C153.7819812 87.66050323 154.31786865 88.19112366 154.86999512 88.73782349 C161.86136237 95.67604735 168.34140094 102.80913909 174.43359375 110.56738281 C175.1460022 111.4523645 175.1460022 111.4523645 175.87280273 112.35522461 C211.71290516 156.87767715 233.47183401 210.19258085 241.43359375 266.56738281 C241.53800781 267.27169434 241.64242187 267.97600586 241.75 268.70166016 C246.1312535 299.34963755 244.83798551 332.95736961 238.88427734 363.25927734 C238.57382034 364.84923429 238.27535901 366.44156492 237.98681641 368.03564453 C233.38339825 393.34251845 224.97624348 418.58249391 213.43359375 441.56738281 C212.96808105 442.50259766 212.50256836 443.4378125 212.02294922 444.40136719 C206.10803221 456.21194065 199.95841678 467.69967379 192.43359375 478.56738281 C192.03962402 479.13714844 191.6456543 479.70691406 191.23974609 480.29394531 C188.36598509 484.43088546 185.42435534 488.51434145 182.43359375 492.56738281 C182.01964355 493.12844727 181.60569336 493.68951172 181.17919922 494.26757812 C176.02990998 501.20171283 170.60104798 507.77123606 164.71484375 514.10253906 C162.83342624 516.13537202 161.03058609 518.2005743 159.24609375 520.31738281 C150.21474729 530.67247273 140.24883814 540.11101889 129.43359375 548.56738281 C128.30503473 549.49432929 127.17887024 550.42419621 126.0546875 551.35644531 C116.62430116 559.13041681 106.74440866 566.01300286 96.43359375 572.56738281 C95.7998584 572.97053711 95.16612305 573.37369141 94.51318359 573.7890625 C90.21700924 576.49624086 85.8547329 579.06993742 81.43359375 581.56738281 C80.68867676 581.98842285 79.94375977 582.40946289 79.17626953 582.84326172 C64.45309201 591.06482812 49.15487853 597.51034168 33.43359375 603.56738281 C32.61906738 603.88578125 31.80454102 604.20417969 30.96533203 604.53222656 C13.31516728 611.38236875 -5.10676158 615.36135906 -23.75390625 618.37988281 C-25.02959473 618.58685791 -26.3052832 618.79383301 -27.61962891 619.00708008 C-42.45053245 621.30655755 -57.03159532 621.75384014 -72.01123047 621.75268555 C-75.16387614 621.75486379 -78.31616627 621.77305406 -81.46875 621.79199219 C-93.96714536 621.82661378 -106.17625948 621.21008489 -118.56640625 619.56738281 C-119.72945534 619.41698547 -119.72945534 619.41698547 -120.91600037 619.2635498 C-173.05382659 612.46148154 -223.97940314 590.56007872 -265.56640625 558.56738281 C-266.4488501 557.89908447 -266.4488501 557.89908447 -267.34912109 557.21728516 C-275.65749257 550.92429951 -283.40857022 544.21295647 -290.97851562 537.05371094 C-292.56921352 535.5647551 -294.18002266 534.10164279 -295.80078125 532.64550781 C-300.74578063 528.19988029 -305.52565946 523.74949702 -309.8046875 518.64160156 C-311.92199285 516.14872099 -314.15062078 513.77399417 -316.37890625 511.37988281 C-353.19963567 470.75011242 -376.54291486 418.0595848 -387.31640625 364.69238281 C-387.51524414 363.73855713 -387.71408203 362.78473145 -387.91894531 361.80200195 C-391.62996667 342.39870721 -391.97718601 322.44870555 -391.94140625 302.75488281 C-391.94119476 301.66686371 -391.94098328 300.5788446 -391.94076538 299.45785522 C-391.90856387 282.79929681 -391.01991598 266.90817395 -387.56640625 250.56738281 C-387.18702553 248.59767208 -386.80943157 246.62761638 -386.43359375 244.65722656 C-377.88475749 201.40255965 -359.34176699 160.26954731 -333.56640625 124.56738281 C-333.1295752 123.96152344 -332.69274414 123.35566406 -332.24267578 122.73144531 C-325.04593419 112.80714678 -325.04593419 112.80714678 -322.56640625 111.56738281 C-322.16808594 113.17806641 -322.16808594 113.17806641 -321.76171875 114.82128906 C-321.40501204 116.25750291 -321.04823759 117.69369993 -320.69140625 119.12988281 C-320.43037109 120.1865918 -320.43037109 120.1865918 -320.1640625 121.26464844 C-319.90302734 122.31362305 -319.90302734 122.31362305 -319.63671875 123.38378906 C-319.46301758 124.0852002 -319.28931641 124.78661133 -319.11035156 125.50927734 C-318.59681834 127.45231372 -317.98668263 129.36907287 -317.37109375 131.28222656 C-316.34211269 135.4830667 -316.47701514 137.63199701 -318.60449219 141.41162109 C-320.00852734 143.68036864 -321.46870073 145.90512356 -322.94140625 148.12988281 C-352.37072151 193.87805225 -369.77252075 247.05121955 -369.81640625 301.69238281 C-369.81708099 302.45216431 -369.81775574 303.2119458 -369.81845093 303.99475098 C-369.78466111 328.2413135 -367.65879875 352.03418434 -361.56640625 375.56738281 C-361.20337402 377.02821289 -361.20337402 377.02821289 -360.83300781 378.51855469 C-351.9699723 413.94788327 -336.80540359 446.8650279 -315.56640625 476.56738281 C-315.11362305 477.20256836 -314.66083984 477.83775391 -314.19433594 478.4921875 C-310.02587288 484.2944556 -305.64857674 489.81239685 -300.78125 495.04394531 C-299.56640625 496.56738281 -299.56640625 496.56738281 -299.56640625 498.56738281 C-298.77882935 498.33402222 -298.77882935 498.33402222 -297.9753418 498.09594727 C-255.03574291 485.5236461 -209.36463495 481.77493701 -164.87695312 487.29394531 C-161.79804435 487.65831321 -158.71353705 487.92379919 -155.62402344 488.18066406 C-148.4827253 488.87737608 -141.49448935 489.87705359 -134.46875 491.33691406 C-133.18778191 491.59815315 -133.18778191 491.59815315 -131.88093567 491.8646698 C-130.05213603 492.23765932 -128.22362553 492.61206892 -126.39538574 492.98779297 C-122.57923731 493.76962998 -118.76013036 494.53648941 -114.94113159 495.30426025 C-109.87751053 496.32349646 -104.81560789 497.35116259 -99.75390625 498.37988281 C-98.68335999 498.59737183 -97.61281372 498.81486084 -96.50982666 499.03894043 C-83.62052136 501.66209439 -70.75842971 504.36103516 -57.94140625 507.31738281 C-25.55912272 514.73616742 6.68973534 520.91796334 39.99609375 520.94238281 C41.05673035 520.94537384 41.05673035 520.94537384 42.13879395 520.94842529 C72.86022233 520.93853198 101.39263153 514.15772278 128.43359375 499.56738281 C129.47902344 499.014375 130.52445313 498.46136719 131.6015625 497.89160156 C147.79936947 488.92610471 162.94309455 475.84691195 174.3203125 461.26660156 C175.73427942 459.46059206 177.19658432 457.69145387 178.703125 455.96191406 C201.79545287 429.32902485 211.89939447 388.57696791 217.43359375 354.56738281 C217.67916016 353.18921387 217.67916016 353.18921387 217.9296875 351.78320312 C224.07514237 316.9801209 222.43328598 277.90399284 214.43359375 243.56738281 C214.15708984 242.34656006 214.15708984 242.34656006 213.875 241.10107422 C199.70845052 179.00029484 163.52085254 118.47288094 112.43359375 79.56738281 C110.93505859 78.37822266 110.93505859 78.37822266 109.40625 77.16503906 C96.81307326 67.21046943 83.34770722 58.55222684 69.43359375 50.56738281 C68.81387695 50.20821777 68.19416016 49.84905273 67.55566406 49.47900391 C54.13790683 41.78159398 39.83990627 36.13243108 25.43359375 30.56738281 C24.50933594 30.20789551 23.58507812 29.8484082 22.6328125 29.47802734 C15.60359482 26.82421711 8.47464847 24.86507251 1.18359375 23.06738281 C-0.03787354 22.76550049 -1.25934082 22.46361816 -2.51782227 22.15258789 C-13.7910156 19.42277932 -25.0811999 17.18701018 -36.56640625 15.56738281 C-37.38995605 15.45023926 -38.21350586 15.3330957 -39.06201172 15.21240234 C-62.69025581 12.02758194 -87.97686286 12.16916887 -111.56640625 15.56738281 C-113.19642578 15.80134766 -113.19642578 15.80134766 -114.859375 16.04003906 C-132.15913467 18.6093103 -148.88456226 22.31974473 -165.56640625 27.56738281 C-166.43523437 27.83776367 -167.3040625 28.10814453 -168.19921875 28.38671875 C-198.52088567 37.97371638 -226.84020555 53.16987918 -252.04980469 72.4440918 C-255.45427473 75.03921174 -258.82932285 77.45762282 -262.56640625 79.56738281 C-263.86496232 77.36285739 -265.1552882 75.15414985 -266.44140625 72.94238281 C-266.98861328 72.01619141 -266.98861328 72.01619141 -267.546875 71.07128906 C-269.71501819 67.32631446 -271.34405504 63.74911065 -272.56640625 59.56738281 C-197.09745498 0.85774348 -98.9662946 -22.00033563 0 0 Z " fill="#2D3774" transform="translate(581.56640625,196.4326171875)"/>
<path d="M0 0 C2 1 2 1 3.2265625 4.65625 C3.69542335 6.27004701 4.16136071 7.88469511 4.625 9.5 C17.37539024 51.60289248 48.2047956 81.22532991 86.01318359 101.9765625 C89.84208736 103.9488855 93.80909739 105.46400915 97.875 106.8671875 C101.21632187 108.07841668 104.41963834 109.48643848 107.65771484 110.94726562 C109.89421307 111.95245432 112.14110862 112.92798597 114.39453125 113.89453125 C132.55198272 121.73824229 147.75196554 129.96703963 156.6875 148.5 C157.65581825 151.082182 158.50137006 153.6208202 159.3125 156.25 C163.5861558 169.15863213 171.69795227 180.7535057 184 187 C184.804375 187.433125 185.60875 187.86625 186.4375 188.3125 C196.59000624 191.03634314 205.46591583 186.96764467 214.39453125 182.1796875 C218.34447673 179.89664767 222.20409879 177.53060081 226 175 C226.33 177.31 226.66 179.62 227 182 C227.62648438 181.566875 228.25296875 181.13375 228.8984375 180.6875 C229.71570313 180.130625 230.53296875 179.57375 231.375 179 C232.18710937 178.443125 232.99921875 177.88625 233.8359375 177.3125 C236 176 236 176 238 176 C238 180.29 238 184.58 238 189 C239.98 188.67 241.96 188.34 244 188 C244 191.63 244 195.26 244 199 C245.44375 198.34 246.8875 197.68 248.375 197 C252.75 195 252.75 195 255 195 C255.27925433 197.66787615 255.53229174 200.33408297 255.75 203.0078125 C255.89610918 204.75655671 256.07026473 206.50414944 256.3125 208.2421875 C257.12615893 217.22633815 251.78963731 225.65210115 246.35546875 232.4375 C233.58870817 247.38048744 217.46384571 254.9981677 199.85400391 262.97167969 C186.67064667 268.99666777 175.84315177 277.30120105 169.625 290.6875 C166.45486154 299.26008275 167.30776474 308.4185001 170 317 C165.45864589 315.1242233 163.60207551 312.36721345 161.2109375 308.1796875 C158.19627109 300.26375698 158.87237609 290.92919003 161.9375 283.125 C162.59468431 281.73525541 163.27550934 280.35587409 164 279 C164.33 278.34 164.66 277.68 165 277 C156.61532875 287.85767822 153.43564366 297.29900679 153 311 C149.58841521 307.89855929 148.09598885 305.53774139 147.8046875 300.87109375 C147.82789063 299.73800781 147.85109375 298.60492187 147.875 297.4375 C147.89304687 296.30183594 147.91109375 295.16617187 147.9296875 293.99609375 C147.95289063 293.00738281 147.97609375 292.01867187 148 291 C148 290.01 148 289.02 148 288 C143.77303258 293.1071031 140.26431725 297.73982877 138 304 C137.67 304 137.34 304 137 304 C136.14210343 294.75378145 137.69101977 289.53685586 143 282 C143 281.67 143 281.34 143 281 C142.26136719 281.40992188 141.52273438 281.81984375 140.76171875 282.2421875 C129.74955794 288.09108613 116.89580578 291.63888154 104.421875 288.3125 C98.96835465 286.08657333 92.71284879 282.42569758 90 277 C89.06736742 268.22408027 89.06736742 268.22408027 92 264.375 C92.66 263.92125 93.32 263.4675 94 263 C93.95359375 263.59167969 93.9071875 264.18335938 93.859375 264.79296875 C93.66817461 268.97889146 93.59667151 271.3324218 95.8125 275 C100.57182651 279.35138424 107.39617801 278.45848286 113.5 278.33984375 C124.32051974 277.78922186 133.31990662 272.03605692 142 266 C141.01 265.360625 140.02 264.72125 139 264.0625 C138.01 263.381875 137.02 262.70125 136 262 C136 261.67 136 261.34 136 261 C136.8353125 260.76216797 136.8353125 260.76216797 137.6875 260.51953125 C145.19754689 258.22338516 151.42710273 255.64049364 155.875 248.9375 C158.16821388 245.61203081 159.87228692 244.37228969 163.6875 243.0625 C175.86506283 238.79031154 182.38187875 229.26835649 188.87744141 218.79199219 C190.49554466 216.20893914 192.20441827 213.69447358 193.9375 211.1875 C194.46214844 210.41792969 194.98679687 209.64835938 195.52734375 208.85546875 C197 207 197 207 200 205 C193.03856303 207.10952635 188.59487753 212.09869026 184.25 217.6875 C175.04219162 229.47278369 164.85223477 239.38082115 150 243 C146.69278316 243.3418312 143.44597351 243.33381006 140.125 243.25 C138.86429687 243.24226563 138.86429687 243.24226563 137.578125 243.234375 C134.07011563 243.18954421 131.35670529 243.11890176 128 242 C128 241.34 128 240.68 128 240 C128.81082031 239.79246094 129.62164062 239.58492187 130.45703125 239.37109375 C143.22280186 235.819267 152.70262587 229.39302613 162 220 C162.33 219.34 162.66 218.68 163 218 C162.16082031 218.63615234 162.16082031 218.63615234 161.3046875 219.28515625 C145.58793697 230.78213614 127.73339119 238.89339574 108 237 C100.69012077 235.80455058 94.75190022 232.64042192 89 228 C89 227.67 89 227.34 89 227 C89.59200195 226.94577881 90.18400391 226.89155762 90.79394531 226.83569336 C111.16950287 224.85898946 128.66287721 220.05098059 146 209 C144.87207031 209.45890625 143.74414062 209.9178125 142.58203125 210.390625 C126.57650771 216.71394365 111.00476266 220.27882076 93.75 220.5 C92.33992676 220.52791626 92.33992676 220.52791626 90.90136719 220.55639648 C81.43415193 220.46917616 74.57110042 217.18684163 67.6640625 210.81640625 C65.49299712 208.44658136 64.16432222 205.98357568 63 203 C63.66499512 203.06928711 64.32999023 203.13857422 65.01513672 203.20996094 C90.30243516 205.69752644 111.23358263 202.52875263 135 194 C129.84188272 194.45372328 124.96431055 195.18856461 119.96142578 196.51855469 C99.20211907 201.61406786 71.83816334 202.13689833 52.79296875 191.8046875 C46.0706045 187.46100599 39.8207392 182.12046851 36 175 C36 174.34 36 173.68 36 173 C38.78170447 173.90217442 41.54145581 174.81292034 44.25 175.91796875 C69.80357805 186.08486489 99.58090567 183.08960215 126 178 C124.74678955 178.02094727 123.4935791 178.04189453 122.20239258 178.06347656 C117.44421334 178.13721067 112.68608154 178.18227209 107.92749023 178.21972656 C105.8883407 178.2395443 103.84924558 178.26660648 101.81030273 178.30175781 C70.66099088 178.82437148 40.76856725 172.45450667 17.46875 150.62890625 C10.79072314 143.66500496 3.32568612 133.81375975 2 124 C3.010625 124.78375 4.02125 125.5675 5.0625 126.375 C21.74252446 138.76837482 38.84592847 148.39231762 59.10986328 153.52099609 C60.82779462 153.95635922 62.5375418 154.42370285 64.24609375 154.89453125 C79.14150819 158.74646645 94.68541997 159.38500341 110 159 C109.4237085 158.91024902 108.84741699 158.82049805 108.25366211 158.72802734 C69.6523268 152.61605411 26.89776063 141.53962787 1.8125 108.875 C-11.55413182 89.51263621 -15.46931274 70.23098063 -15 47 C-11.69346936 49.71356618 -10.31168791 53.33736335 -8.5625 57.125 C9.41913033 94.33674826 43.32681074 118.35606929 81.5 131.9375 C88.25530973 134.27050259 94.89252893 136.09586941 102 137 C100.79988281 136.55011719 99.59976563 136.10023438 98.36328125 135.63671875 C72.58876889 125.77552993 50.46651615 112.48237846 30 94 C29.32839844 93.4121875 28.65679687 92.824375 27.96484375 92.21875 C17.21869628 82.26014525 9.97632663 69.18473955 4 56 C3.57976562 55.11957031 3.15953125 54.23914063 2.7265625 53.33203125 C-4.50522821 37.10128293 -5.53520862 16.80331187 0 0 Z " fill="#D89A3E" transform="translate(288,240)"/>
<path d="M0 0 C9.8212005 20.7567364 19.60560434 41.52963715 29.29833984 62.34667969 C31.6104704 67.31172838 33.92719269 72.27463283 36.24389648 77.23754883 C37.41192429 79.73973531 38.57938097 82.24218696 39.74633789 84.74487305 C42.67990757 91.03540205 45.61943699 97.32303757 48.5703125 103.60546875 C51.20732447 109.2199615 53.82666832 114.84238969 56.43075562 120.472229 C58.15507514 124.19569248 59.90325386 127.90681749 61.66812134 131.61122131 C62.53592491 133.44174588 63.39289685 135.27690234 64.24560547 137.11450195 C65.29487442 139.37513099 66.36040211 141.62832028 67.44580078 143.87182617 C70.6930637 150.96482557 72.09696369 157.18703921 71 165 C69.50333531 168.76665964 67.3862805 170.74247967 64 173 C63.01 172.67 62.02 172.34 61 172 C61.804375 171.525625 62.60875 171.05125 63.4375 170.5625 C66.56466272 167.43533728 66.90369572 165.65744601 67.12109375 161.3515625 C66.48262003 148.95281481 55.10250814 138.26311142 46.55224609 130.37939453 C41.59136229 125.97093377 36.31594611 121.96640068 31 118 C30.45537109 117.58927246 29.91074219 117.17854492 29.34960938 116.75537109 C-1.17822769 93.84103632 -36.14752125 76.98191578 -71.84643555 63.82519531 C-73.74985516 63.09584963 -75.62057073 62.28237058 -77.484375 61.45703125 C-97.57071738 53.13235824 -121.35286823 48.64473653 -143 48.375 C-144.58312988 48.34043701 -144.58312988 48.34043701 -146.19824219 48.30517578 C-153.36217434 48.37738822 -159.06037698 49.86622352 -165 54 C-166.93395001 56.90092502 -167.30131941 57.89674737 -167.625 61.1875 C-167.74875 62.445625 -167.8725 63.70375 -168 65 C-170 63 -170 63 -170.5 59.375 C-170.3713386 54.95226421 -168.68353549 52.34119771 -166.09375 48.859375 C-160.82600113 44.18129951 -153.94611974 42.13270978 -147.3125 40.125 C-146.49507324 39.87234375 -145.67764648 39.6196875 -144.83544922 39.359375 C-136.15657643 36.69857848 -127.42529321 34.21941432 -118.68798828 31.75878906 C-114.14285848 30.4757497 -109.60299273 29.17433371 -105.0625 27.875 C-103.29819598 27.3710276 -101.53387366 26.86711924 -99.76953125 26.36328125 C-96.99557166 25.57079896 -94.22212106 24.77664862 -91.44921875 23.98046875 C-83.29271635 21.64008039 -75.12220384 19.3514392 -66.94970703 17.06762695 C-59.99648324 15.12302945 -53.04611525 13.16857829 -46.09765625 11.20703125 C-45.2358223 10.96375595 -44.37398834 10.72048065 -43.48603821 10.46983337 C-39.17936763 9.25397983 -34.87290198 8.03740499 -30.56665039 6.82006836 C-27.4246391 5.93187759 -24.2815965 5.04749142 -21.13769531 4.16601562 C-18.62184841 3.4602202 -16.11234907 2.74011255 -13.60449219 2.00585938 C-12.64961914 1.73064453 -11.69474609 1.45542969 -10.7109375 1.171875 C-9.5360376 0.82527832 -9.5360376 0.82527832 -8.33740234 0.47167969 C-5.52074761 -0.09671147 -2.86564452 -0.07757565 0 0 Z " fill="#2F427F" transform="translate(650,272)"/>
<path d="M0 0 C0.33 0.66 0.66 1.32 1 2 C0.04711914 3.90429687 0.04711914 3.90429687 -1.46484375 6.21875 C-2.01366211 7.0638916 -2.56248047 7.9090332 -3.12792969 8.77978516 C-3.72508789 9.67745605 -4.32224609 10.57512695 -4.9375 11.5 C-5.83903809 12.86777588 -5.83903809 12.86777588 -6.75878906 14.26318359 C-10.87108117 20.44489434 -15.09946412 26.41237868 -20 32 C-21.10794922 33.27037109 -21.10794922 33.27037109 -22.23828125 34.56640625 C-24.46186544 37.07401128 -26.72179399 39.54204562 -29 42 C-29.52722656 42.59296875 -30.05445313 43.1859375 -30.59765625 43.796875 C-54.99920053 70.00825248 -95.1549542 83.25610252 -130 85 C-135.31339881 85.15184987 -140.62248772 85.19655691 -145.9375 85.1875 C-147.01639999 85.18609512 -147.01639999 85.18609512 -148.11709595 85.18466187 C-183.83778495 85.08463152 -218.72241042 78.26203792 -253.3125 69.75 C-325.7473053 52.04425862 -402.2912581 36.45618928 -475.12255859 60.41503906 C-477.06676637 61.02080263 -479.02036069 61.52418328 -481 62 C-471.57901587 51.41378889 -456.01411335 44.99886132 -443 40 C-442.34193359 39.73880371 -441.68386719 39.47760742 -441.00585938 39.20849609 C-426.83033816 33.66497705 -411.98604534 31.32281921 -397 29 C-395.86876709 28.81896729 -394.73753418 28.63793457 -393.57202148 28.45141602 C-386.99646454 27.62042669 -380.36896709 27.75744025 -373.75 27.75 C-372.57481308 27.74749237 -372.57481308 27.74749237 -371.37588501 27.74493408 C-359.25924757 27.74340213 -347.25508029 28.29705359 -335.1875 29.375 C-334.47758911 29.43812378 -333.76767822 29.50124756 -333.03625488 29.56628418 C-319.79187082 30.76933821 -306.59132734 32.29285029 -293.5625 35 C-292.5521167 35.20584717 -291.5417334 35.41169434 -290.50073242 35.6237793 C-287.41617544 36.25503645 -284.3329168 36.89226505 -281.25024414 37.53265381 C-278.76142156 38.04954961 -276.2723199 38.56508918 -273.78320312 39.08056641 C-267.79240032 40.32181334 -261.80233117 41.56657351 -255.8125 42.8125 C-254.77392853 43.02844818 -253.73535706 43.24439636 -252.66531372 43.46688843 C-241.9608442 45.6940331 -231.25972171 47.93339348 -220.57421875 50.25 C-205.59885101 53.48844573 -190.63954133 56.56136808 -175.5 58.9375 C-174.23671875 59.13706299 -172.9734375 59.33662598 -171.671875 59.54223633 C-122.7415538 66.90212839 -70.96478288 61.45848602 -30.078125 31.88671875 C-18.73209975 22.97438235 -7.50792078 12.4158223 0 0 Z " fill="#2A8947" transform="translate(768,622)"/>
<path d="M0 0 C0.76812012 0.00161133 1.53624023 0.00322266 2.32763672 0.00488281 C13.07588124 0.22167556 23.61224118 2.26301975 34.125 4.375 C35.24237549 4.59929687 35.24237549 4.59929687 36.38232422 4.828125 C79.60351025 13.85473963 131.16172396 35.81343784 165.125 64.375 C163.67168912 68.99994816 161.01952208 72.10217392 157.75 75.5625 C157.21544189 76.13129883 156.68088379 76.70009766 156.13012695 77.28613281 C146.60343707 87.24718724 136.11647218 94.68744821 124.125 101.375 C123.444375 101.808125 122.76375 102.24125 122.0625 102.6875 C109.91937117 106.99635216 81.87116479 89.04120036 71.10839844 83.94726562 C68.3344305 82.6065612 65.57039222 81.24844108 62.8125 79.875 C61.98919189 79.46604492 61.16588379 79.05708984 60.31762695 78.63574219 C50.5670273 73.70108191 50.5670273 73.70108191 49.125 69.375 C47.93335894 58.03698824 47.76788311 46.6813132 55.125 37.375 C60.88011481 31.49133451 67.64913029 27.68347 75.125 24.375 C75.125 23.715 75.125 23.055 75.125 22.375 C67.93315529 17.77221939 61.52374359 17.76290519 53.125 18.375 C52.22523438 18.57609375 51.32546875 18.7771875 50.3984375 18.984375 C47.42082561 19.49599216 45.78637943 18.33083853 43.125 17.09765625 C35.67402636 14.40540991 29.25814915 16.85685306 22.375 19.9296875 C11.11109571 24.93887571 -0.48490829 28.97228126 -12.875 26.375 C-16.00998484 23.79264016 -17.46134095 21.14022651 -18.875 17.375 C-19.205 16.715 -19.535 16.055 -19.875 15.375 C-20.45995822 10.27750696 -20.45995822 10.27750696 -19.875 7.375 C-14.29686931 1.26561877 -7.99854143 -0.01801879 0 0 Z " fill="#2E427F" transform="translate(505.875,324.625)"/>
<path d="M0 0 C25 0 25 0 32.6875 7.4375 C34.56201172 9.94360352 34.56201172 9.94360352 35.8671875 12.12890625 C38.97250266 17.06685025 42.54168673 21.43499307 46.3125 25.875 C47.47904912 27.28701183 48.64319199 28.70101575 49.8046875 30.1171875 C51.32670868 31.96683477 52.8487534 33.81645875 54.37207031 35.66503906 C55.56173918 37.10904457 56.749675 38.55447737 57.9375 40 C58.56527344 40.763125 59.19304688 41.52625 59.83984375 42.3125 C62.94085131 46.17053473 65.96110684 50.09285165 69 54 C69.33 36.18 69.66 18.36 70 0 C78.91 0 87.82 0 97 0 C97 32.34 97 64.68 97 98 C73 98 73 98 65.5625 91.1875 C63.77978516 88.92675781 63.77978516 88.92675781 62.6015625 87.015625 C60.41726703 83.61570777 58.054175 80.52573127 55.4375 77.4375 C54.73367188 76.56738281 54.02984375 75.69726562 53.3046875 74.80078125 C50.61109158 71.5273774 47.83903261 68.32798347 45.0625 65.125 C40.53645968 59.90158959 36.24093755 54.54856251 32.12133789 48.99853516 C29.97181985 46.03769237 29.97181985 46.03769237 27 44 C27 61.82 27 79.64 27 98 C18.09 98 9.18 98 0 98 C0 65.66 0 33.32 0 0 Z " fill="#2E4584" transform="translate(625,509)"/>
<path d="M0 0 C12.16733602 -0.59256507 23.67883755 0.10877878 35.6875 2.25 C36.85571289 2.45455811 38.02392578 2.65911621 39.22753906 2.86987305 C49.25612911 4.76944485 58.01221402 7.50992389 66 14 C68.20009864 17.30014795 68.62319003 18.1718327 68 22 C64.40173346 27.13939791 60.90570484 29.46138243 55.25 32 C48.36226793 35.25947129 41.45008364 38.54991636 36 44 C35.34812224 49.66830323 35.34812224 49.66830323 37.75 54.625 C62.62138868 74.99909648 107.26311865 75.27728394 138 77 C135.44419108 79.55580892 133.69235767 79.6758369 130.1640625 80.40234375 C128.96402588 80.65153564 127.76398926 80.90072754 126.52758789 81.1574707 C125.23973389 81.41488037 123.95187988 81.67229004 122.625 81.9375 C121.97095184 82.07006195 121.31690369 82.2026239 120.64303589 82.33920288 C112.4772722 83.99341307 104.30035085 85.55690142 96.0625 86.8125 C94.97799561 86.97963501 94.97799561 86.97963501 93.87158203 87.15014648 C82.21105128 88.81536884 70.4848997 89.1659781 58.72363281 89.13037109 C56.63338922 89.12502147 54.54336208 89.13035205 52.453125 89.13671875 C37.69090298 89.14731758 23.32492453 88.16502834 8.75 85.625 C7.491875 85.41617188 6.23375 85.20734375 4.9375 84.9921875 C-10.44991597 82.37441134 -24.71185159 79.80173012 -35 67 C-37.88468811 62.26086953 -38.04800224 57.37101147 -37 52 C-30.28640398 40.28769391 -17.08467193 35.95809168 -5 32 C1.26057832 29.93890126 7.48918026 27.80423392 13.6875 25.5625 C14.50283203 25.27568359 15.31816406 24.98886719 16.15820312 24.69335938 C20.92331681 22.96374252 25.01926882 21.17322945 29 18 C30 15 30 15 29 12 C24.81321278 8.72393387 20.6622357 6.98483821 15.625 5.375 C14.96814209 5.16335205 14.31128418 4.9517041 13.63452148 4.73364258 C9.12657729 3.29937271 4.61438187 2.03588164 0 1 C0 0.67 0 0.34 0 0 Z " fill="#F6F6F5" transform="translate(451,708)"/>
<path d="M0 0 C9.9 0 19.8 0 30 0 C36.77485201 15.16276403 43.47945596 30.34235926 49.98925781 45.62011719 C52.60983584 51.76971621 55.25884414 57.90308814 58 64 C63.57140005 53.10502164 68.73340289 42.09019027 73.625 30.875 C74.26005728 29.42822761 74.89547357 27.98161276 75.53125 26.53515625 C79.40440526 17.71143023 83.21530867 8.86200032 87 0 C96.24 0 105.48 0 115 0 C113.81102576 2.9724356 112.62481469 5.91119745 111.34277344 8.83935547 C111.02722 9.56091827 110.71166656 10.28248108 110.3865509 11.02590942 C110.04758286 11.79853119 109.70861481 12.57115295 109.359375 13.3671875 C109.00054733 14.18629608 108.64171967 15.00540466 108.27201843 15.84933472 C107.09913997 18.52505271 105.92471128 21.20008619 104.75 23.875 C104.34838654 24.79027466 103.94677307 25.70554932 103.5329895 26.64855957 C97.95802023 39.34930963 92.31385532 52.01589648 86.57696533 64.64425659 C81.55707833 75.69808896 76.73300111 86.82032497 72 98 C62.43 98 52.86 98 43 98 C37.51680838 86.05155259 32.13727039 74.0743308 26.9375 62 C21.67794553 49.79073075 16.30309579 37.63524812 10.875 25.5 C10.5033371 24.66791016 10.13167419 23.83582031 9.74874878 22.97851562 C8.68568632 20.59952904 7.62060003 18.22146077 6.5546875 15.84375 C6.08203712 14.78625549 6.08203712 14.78625549 5.59983826 13.70739746 C4.22191512 10.64093709 2.8102966 7.62930655 1.27783203 4.63476562 C0 2 0 2 0 0 Z " fill="#2D599B" transform="translate(498,509)"/>
<path d="M0 0 C1.54522835 4.63568506 -0.53572494 8.00511302 -2.25 12.4375 C-2.60771484 13.36602783 -2.96542969 14.29455566 -3.33398438 15.2512207 C-8.88180319 29.18552369 -15.87119021 42.83390246 -26 54 C-27.02480469 55.20076172 -27.02480469 55.20076172 -28.0703125 56.42578125 C-46.51286896 77.67768771 -70.3247029 92.92120958 -98 99 C-100.9765625 99.12109375 -100.9765625 99.12109375 -103 99 C-101.68 96.03 -100.36 93.06 -99 90 C-99.51949219 90.48210937 -100.03898437 90.96421875 -100.57421875 91.4609375 C-101.62029297 92.40839844 -101.62029297 92.40839844 -102.6875 93.375 C-103.37199219 94.00148438 -104.05648437 94.62796875 -104.76171875 95.2734375 C-109.60731748 99.01122919 -114.40176004 99.64982899 -120.38671875 99.59765625 C-127.21366054 98.46844318 -133.22639126 95.07352576 -139.28930664 91.84790039 C-144.96733378 89.03360208 -153.10960081 88.70080765 -159.1171875 90.70703125 C-160.43713354 91.42610633 -161.72343445 92.20645925 -163 93 C-163.66 92.67 -164.32 92.34 -165 92 C-158.34515164 79.26444706 -149.2481418 72.14825088 -135.796875 67.1875 C-126.04153281 64.5066426 -114.21850874 64.63281332 -105.015625 68.83203125 C-102.87295508 70.07361712 -100.94565172 71.47064764 -99 73 C-99.99 69.535 -99.99 69.535 -101 66 C-99.77925781 66.03480469 -98.55851562 66.06960938 -97.30078125 66.10546875 C-73.04026495 66.59240932 -53.51185927 58.74608063 -35 43 C-34.31292969 42.44699219 -33.62585938 41.89398437 -32.91796875 41.32421875 C-19.57172592 30.29448355 -9.76560425 14.16512562 0 0 Z " fill="#D08A39" transform="translate(418,540)"/>
<path d="M0 0 C0.33 0.66 0.66 1.32 1 2 C-0.21053947 4.40587116 -1.46867739 6.6487458 -2.875 8.9375 C-3.49193726 9.94913208 -3.49193726 9.94913208 -4.12133789 10.98120117 C-19.8606914 36.26555617 -43.07335803 52.02693153 -71 61 C-72.10214844 61.36351562 -73.20429688 61.72703125 -74.33984375 62.1015625 C-94.79524236 67.62168268 -119.58129541 65.78887281 -138.2578125 55.69140625 C-155.58432284 45.00425671 -164.70541864 29.9115469 -170.40625 10.76953125 C-170.98191106 8.08437539 -171.12003482 5.73579358 -171 3 C-170.484375 3.70125 -169.96875 4.4025 -169.4375 5.125 C-163.87230113 11.68908072 -157.25771312 17.1413345 -148.46459961 18.34790039 C-145.82646258 18.4712011 -143.20339596 18.5024006 -140.5625 18.5 C-131.1916247 18.74013225 -123.29195284 19.16730138 -116.5 26.3125 C-113.89262586 29.7035512 -112.98892481 32.87947997 -112 37 C-111.01 37.495 -111.01 37.495 -110 38 C-110 35.03 -110 32.06 -110 29 C-108.845 29.9075 -107.69 30.815 -106.5 31.75 C-96.58716355 39.1541397 -86.41268591 42.52927019 -74.0625 42.375 C-73.13759766 42.38660156 -72.21269531 42.39820313 -71.25976562 42.41015625 C-47.50448146 42.31027419 -24.12463352 26.2324906 -8 10 C-5.20945802 6.75497235 -2.56191306 3.42781104 0 0 Z " fill="#DC9E3E" transform="translate(414,533)"/>
<path d="M0 0 C3.1875 2 3.1875 2 5 4 C4.44271087 7.34373475 3.64826111 10.03312999 2 13 C4.21642117 10.78357883 5.19521189 7.18612901 6.453125 4.34765625 C8.37931627 1.42432051 9.6438238 0.87701539 13 0 C15.75390625 -0.265625 15.75390625 -0.265625 18.5625 -0.25 C19.49191406 -0.25515625 20.42132812 -0.2603125 21.37890625 -0.265625 C24.0554462 0.00561899 25.70438282 0.63883405 28 2 C24.80695434 3.66891885 21.53796877 4.99209703 18.1875 6.3125 C13.20204611 8.36282131 9.2084375 10.65237926 5 14 C5.55429687 13.69964844 6.10859375 13.39929688 6.6796875 13.08984375 C7.40414062 12.70957031 8.12859375 12.32929688 8.875 11.9375 C9.59429688 11.55464844 10.31359375 11.17179687 11.0546875 10.77734375 C12.01761719 10.39255859 12.01761719 10.39255859 13 10 C13.99 10.495 13.99 10.495 15 11 C14.48050781 11.36609375 13.96101562 11.7321875 13.42578125 12.109375 C6.28878583 17.65011081 2.95232737 24.05966288 1.5234375 32.97265625 C1.09061528 42.16443341 3.33535537 50.86721489 5.20483398 59.80859375 C6.72351944 67.46527665 7.46807234 74.81949974 7.4375 82.625 C7.43492187 83.55368896 7.43234375 84.48237793 7.4296875 85.43920898 C7.24327175 93.90947465 5.08464611 101.14817354 2 109 C1.67 109 1.34 109 1 109 C0.94392578 107.67548828 0.94392578 107.67548828 0.88671875 106.32421875 C0.50219584 99.30479079 -0.27436027 92.92345312 -2.37890625 86.20703125 C-3 84 -3 84 -3 81 C-3.48210938 81.433125 -3.96421875 81.86625 -4.4609375 82.3125 C-5.09257813 82.869375 -5.72421875 83.42625 -6.375 84 C-7.00148438 84.556875 -7.62796875 85.11375 -8.2734375 85.6875 C-10 87 -10 87 -12 87 C-12.33 82.38 -12.66 77.76 -13 73 C-13.66 73 -14.32 73 -15 73 C-15.495 74.485 -15.495 74.485 -16 76 C-16.66 76 -17.32 76 -18 76 C-18.99 71.71 -19.98 67.42 -21 63 C-21.66 63 -22.32 63 -23 63 C-23.2475 63.61875 -23.495 64.2375 -23.75 64.875 C-25 67 -25 67 -29 69 C-29.33 65.7 -29.66 62.4 -30 59 C-31.155 60.0725 -32.31 61.145 -33.5 62.25 C-38.13020401 66.29016031 -42.74228189 69.72852349 -49 70.25 C-49.66 70.1675 -50.32 70.085 -51 70 C-50.29875 69.319375 -49.5975 68.63875 -48.875 67.9375 C-47.91301152 66.96192411 -46.95495902 65.98245784 -46 65 C-45.50757813 64.50371094 -45.01515625 64.00742187 -44.5078125 63.49609375 C-36.92099185 55.33927881 -34.28993308 45.22352148 -31.78686523 34.63769531 C-30.73001144 30.27050124 -29.6198098 26.74042208 -27 23 C-27.7734375 23.433125 -28.546875 23.86625 -29.34375 24.3125 C-40.13769752 30.08352144 -40.13769752 30.08352144 -47 29 C-50 27.5625 -50 27.5625 -52 26 C-52 25.67 -52 25.34 -52 25 C-51.13117188 24.81824219 -50.26234375 24.63648438 -49.3671875 24.44921875 C-40.84027514 22.63255772 -40.84027514 22.63255772 -33 19 C-34.3303125 19.2475 -34.3303125 19.2475 -35.6875 19.5 C-52.43946474 21.74721478 -52.43946474 21.74721478 -59.40625 16.56640625 C-62.09457488 13.92420459 -63.51753848 11.48056182 -65 8 C-64.67 7.01 -64.34 6.02 -64 5 C-63.07767578 5.41572266 -63.07767578 5.41572266 -62.13671875 5.83984375 C-60.92435547 6.38318359 -60.92435547 6.38318359 -59.6875 6.9375 C-58.88699219 7.29714844 -58.08648437 7.65679687 -57.26171875 8.02734375 C-47.11928135 12.38911735 -36.59663594 10.15572323 -26.6015625 6.4453125 C-23.27283201 5.1094879 -20.01750771 3.66505517 -16.75 2.1875 C-11.14663677 -0.20205841 -6.04376516 -1.13070441 0 0 Z " fill="#DFA645" transform="translate(548,346)"/>
<path d="M0 0 C2.24483022 2.24483022 3.0836665 4.44686791 4.25708008 7.35693359 C7.47310066 15.29792618 11.093021 21.69491859 17 28 C17.73863281 28.81726563 18.47726562 29.63453125 19.23828125 30.4765625 C27.60863727 39.32639882 37.37103504 45.89658937 47.79418945 52.05737305 C66.94140741 63.39488463 75.1896813 74.28943079 80.78515625 95.96289062 C83.93713027 107.39362091 88.91722205 115.55749773 99 122 C95.86381306 125.13618694 93.0019976 125.88866693 88.625 126.375 C81.97772727 125.6873511 77.26617984 121.9660522 72.76953125 117.24609375 C68.32903462 111.60970179 64.2437871 104.84390205 63.0625 97.6875 C62.27801318 92.9980121 60.28587016 89.03557168 58.1875 84.8125 C57.85564697 84.13469482 57.52379395 83.45688965 57.18188477 82.75854492 C49.10296936 66.91002004 32.63749928 58.98628488 16.6328125 52.9296875 C15.72845459 52.58550781 14.82409668 52.24132812 13.89233398 51.88671875 C12.12351261 51.22510707 10.34702332 50.58355762 8.56274414 49.96484375 C4.52832534 48.47052549 2.47994817 47.70304907 0 44.0703125 C-4.09526126 31.49658067 -6.09130476 12.18260952 0 0 Z " fill="#C98538" transform="translate(389,296)"/>
<path d="M0 0 C4.24822374 0.47202486 6.19989709 2.96655518 9 6 C-9.05802804 31.37885022 -34.04318728 49.4458581 -64 58 C-64.85722656 58.24621094 -65.71445312 58.49242187 -66.59765625 58.74609375 C-81.9854071 62.4710084 -97.44739975 60.03608195 -111 52 C-113 50 -113 50 -113.1875 46.3125 C-113.09629967 42.47507066 -112.63059333 38.78355996 -112 35 C-111.31035156 35.47050781 -110.62070312 35.94101562 -109.91015625 36.42578125 C-104.10073875 40.27481918 -98.75876362 43.26012026 -92 45 C-91.41347656 45.18046875 -90.82695313 45.3609375 -90.22265625 45.546875 C-71.41408255 49.38131182 -53.08495422 42.0920847 -37 33 C-36.02675781 32.45601563 -35.05351563 31.91203125 -34.05078125 31.3515625 C-21.18930826 23.65345458 -8.35328039 12.52992059 0 0 Z " fill="#345695" transform="translate(674,393)"/>
<path d="M0 0 C7.42963349 -0.44577801 13.87417353 -0.70753167 20 4 C20.61875 4.886875 21.2375 5.77375 21.875 6.6875 C24.8401329 9.91426228 27.23701674 9.47419858 31.4609375 9.7109375 C35.54924587 10.17637568 37.71103333 11.51649455 41 14 C43.07745104 17.28371294 44 19.11659385 44 23 C44.66 23 45.32 23 46 23 C46 21.02 46 19.04 46 17 C46.54527344 17.38671875 47.09054687 17.7734375 47.65234375 18.171875 C50.06789731 19.84005216 52.51710525 21.43386639 55 23 C55.67289062 23.42539062 56.34578125 23.85078125 57.0390625 24.2890625 C66.72809207 29.4889664 78.51375515 27.86121473 88.6875 24.9375 C97.17937011 22.3072146 106.97903171 18.75822972 113 12 C113.99 12.495 113.99 12.495 115 13 C103.17685579 28.90009048 83.32336231 39.09379369 64 42 C49.53835458 43.15926538 36.33998148 43.39585851 24.625 34 C19.45646923 29.02774255 17.30003537 23.67809497 15 17 C12.26029628 9.60100739 12.26029628 9.60100739 7 4 C4.33742713 3.11418249 1.76342924 2.55268585 -1 2 C-0.67 1.34 -0.34 0.68 0 0 Z " fill="#E9B248" transform="translate(292,522)"/>
<path d="M0 0 C0.33 0 0.66 0 1 0 C1.5907632 23.99104504 0.71592294 48.92091124 -16 68 C-26.26428583 78.63550774 -39.09142448 83.82802096 -53.875 84.1875 C-58.54442295 84.15212558 -62.53258101 83.3236797 -67 82 C-67 81.67 -67 81.34 -67 81 C-66.41992188 80.82984375 -65.83984375 80.6596875 -65.2421875 80.484375 C-64.46101563 80.24203125 -63.67984375 79.9996875 -62.875 79.75 C-62.10929687 79.51796875 -61.34359375 79.2859375 -60.5546875 79.046875 C-54.09134548 76.39828836 -50.86757811 72.91567148 -47.5 67.0625 C-44.28793052 61.5149148 -41.00374973 56.10807141 -34.4453125 54.29296875 C-33.67960937 54.25816406 -32.91390625 54.22335937 -32.125 54.1875 C-31.34382813 54.13980469 -30.56265625 54.09210937 -29.7578125 54.04296875 C-29.17773438 54.02878906 -28.59765625 54.01460937 -28 54 C-29.32 53.34 -30.64 52.68 -32 52 C-32 51.34 -32 50.68 -32 50 C-30.53125 48.80859375 -30.53125 48.80859375 -28.5 47.4375 C-12.93521488 35.95573069 -7.0666057 17.29063096 0 0 Z " fill="#DC9F42" transform="translate(420,557)"/>
<path d="M0 0 C5.16539602 1.49114262 8.20695217 4.70566433 11.875 8.4375 C12.49197754 9.06422607 13.10895508 9.69095215 13.74462891 10.33666992 C26.1109744 23.18467265 26.1109744 23.18467265 26.8125 31.875 C26.53738033 35.21232127 25.69564994 36.79434051 23.1875 39 C12.11638682 45.94658082 -7.37113352 42.90266489 -19.61401367 40.35595703 C-31.9246726 37.5045414 -31.9246726 37.5045414 -35 34 C-33.97261719 33.18917969 -32.94523438 32.37835938 -31.88671875 31.54296875 C-19.94038066 22.03244621 -9.2638781 12.23681319 0 0 Z " fill="#2E326E" transform="translate(686,402)"/>
<path d="M0 0 C0.76812012 0.00161133 1.53624023 0.00322266 2.32763672 0.00488281 C24.15260247 0.44509371 45.97472716 6.33632733 66.125 14.375 C66.125 15.035 66.125 15.695 66.125 16.375 C64.80435547 16.57416016 64.80435547 16.57416016 63.45703125 16.77734375 C62.29558594 16.95394531 61.13414062 17.13054687 59.9375 17.3125 C58.78894531 17.48652344 57.64039063 17.66054688 56.45703125 17.83984375 C53.21034906 18.3175023 53.21034906 18.3175023 50.3984375 19.03125 C47.437053 19.47901948 45.76817382 18.32240274 43.125 17.09765625 C35.67402636 14.40540991 29.25814915 16.85685306 22.375 19.9296875 C11.11109571 24.93887571 -0.48490829 28.97228126 -12.875 26.375 C-16.00998484 23.79264016 -17.46134095 21.14022651 -18.875 17.375 C-19.205 16.715 -19.535 16.055 -19.875 15.375 C-20.45995822 10.27750696 -20.45995822 10.27750696 -19.875 7.375 C-14.29686931 1.26561877 -7.99854143 -0.01801879 0 0 Z " fill="#2F306B" transform="translate(505.875,324.625)"/>
<path d="M0 0 C3.3 -0.0825 6.6 -0.165 10 -0.25 C11.02351562 -0.28641602 12.04703125 -0.32283203 13.1015625 -0.36035156 C20.44971932 -0.44850669 25.13673184 1.29715381 31.09375 5.46484375 C34.71855681 9.26082199 35.44589846 12.32079491 35.625 17.5625 C35.33531214 22.83119788 34.95427738 26.23402154 31 30 C22.21499586 37.31757583 10.68191449 35.33803527 0 35 C0 23.45 0 11.9 0 0 Z " fill="#345291" transform="translate(531,618)"/>
<path d="M0 0 C20.32036768 10.16018384 46.68919675 29.92446019 56 51.0625 C57.41936162 55.45365001 57.37089153 59.59530117 56 64 C54.52350184 66.35755609 52.98637743 68.01362257 51 70 C48 69 48 69 46 67 C46.66 66.360625 47.32 65.72125 48 65.0625 C50.29401573 61.54978841 50.78867615 59.62968355 50.55078125 55.50390625 C48.65418213 46.88177833 41.80365105 40.46012684 35.8125 34.375 C35.20647949 33.75858643 34.60045898 33.14217285 33.97607422 32.50708008 C33.10039795 31.648927 33.10039795 31.648927 32.20703125 30.7734375 C31.6860083 30.26216309 31.16498535 29.75088867 30.62817383 29.22412109 C28.77702642 27.83236025 27.26118506 27.41045524 25 27 C24.50113281 27.64324219 24.00226562 28.28648437 23.48828125 28.94921875 C18.9940826 34.60529282 14.30105595 40.02618218 9.3125 45.25 C8.51162964 46.12724731 8.51162964 46.12724731 7.69458008 47.0222168 C6.11328125 48.640625 6.11328125 48.640625 3 51 C-0.39453125 50.859375 -0.39453125 50.859375 -3 50 C-0.55065935 47.54195831 1.90451547 45.09268075 4.39453125 42.67578125 C14.34763798 33.48050038 14.34763798 33.48050038 21 22 C17.51216486 18.75283938 17.51216486 18.75283938 13 18 C10.86828421 20.21631063 10.86828421 20.21631063 8.75 23.0625 C1.17743687 32.5736393 -7.39590298 39.63375083 -17 47 C-17.66 46.67 -18.32 46.34 -19 46 C-19 45.34 -19 44.68 -19 44 C-19.66 43.67 -20.32 43.34 -21 43 C-20.32195313 42.52691406 -19.64390625 42.05382812 -18.9453125 41.56640625 C-8.50170442 34.14594788 2.02067221 25.94444717 9 15 C7.68374806 11.05124418 5.94634602 10.45007287 2.4375 8.3125 C0.91962891 7.37857422 0.91962891 7.37857422 -0.62890625 6.42578125 C-1.41136719 5.95527344 -2.19382812 5.48476563 -3 5 C-2.67 4.34 -2.34 3.68 -2 3 C-1.34 3 -0.68 3 0 3 C0 2.01 0 1.02 0 0 Z " fill="#E8E8EB" transform="translate(661,376)"/>
<path d="M0 0 C2.35348817 3.53023225 3.0490617 6.92651924 3.9375 11 C5.02628275 15.89695932 6.18007179 20.66819201 7.75 25.4375 C11.11210038 37.70916638 10.08494518 50.8160248 4 62 C-0.13569244 68.79361884 -5.15246848 73.040543 -12 77 C-12.66 76.67 -13.32 76.34 -14 76 C-13.236875 74.9275 -12.47375 73.855 -11.6875 72.75 C-4.13148797 60.37216448 -5.77014527 46.01918196 -6.13696289 32.11499023 C-6.67383772 10.01075658 -6.67383772 10.01075658 0 0 Z " fill="#CD8A3A" transform="translate(432,544)"/>
<path d="M0 0 C1.23556641 0.01740234 1.23556641 0.01740234 2.49609375 0.03515625 C3.32238281 0.04417969 4.14867187 0.05320312 5 0.0625 C5.63808594 0.07410156 6.27617188 0.08570313 6.93359375 0.09765625 C8.68447468 3.90975228 10.43413607 7.72240688 12.18359375 11.53515625 C12.67472656 12.60443359 13.16585937 13.67371094 13.671875 14.77539062 C15.09646383 17.88099427 16.51578481 20.98895251 17.93359375 24.09765625 C18.34673828 24.99629395 18.75988281 25.89493164 19.18554688 26.82080078 C19.55099609 27.62501465 19.91644531 28.42922852 20.29296875 29.2578125 C20.7720166 30.30594116 20.7720166 30.30594116 21.26074219 31.37524414 C21.93359375 33.09765625 21.93359375 33.09765625 21.93359375 35.09765625 C18.63359375 35.09765625 15.33359375 35.09765625 11.93359375 35.09765625 C11.27359375 32.45765625 10.61359375 29.81765625 9.93359375 27.09765625 C4.65359375 27.09765625 -0.62640625 27.09765625 -6.06640625 27.09765625 C-6.39640625 28.74765625 -6.72640625 30.39765625 -7.06640625 32.09765625 C-7.39640625 33.08765625 -7.72640625 34.07765625 -8.06640625 35.09765625 C-11.03640625 35.09765625 -14.00640625 35.09765625 -17.06640625 35.09765625 C-14.70543667 27.51685596 -11.66740233 20.34774639 -8.44140625 13.09765625 C-7.93867187 11.95425781 -7.4359375 10.81085937 -6.91796875 9.6328125 C-2.71381117 0.12825195 -2.71381117 0.12825195 0 0 Z " fill="#335698" transform="translate(594.06640625,617.90234375)"/>
<path d="M0 0 C3.28454558 -0.88956443 5.75165983 -1.10613741 9 0 C12.30730071 4.02415406 14.66129373 8.36082244 17 13 C19.7381152 10.59013838 21.02200843 8.06066714 22.625 4.8125 C25.27768074 0.19710346 25.27768074 0.19710346 28.390625 -0.65234375 C30.67085456 -0.62724688 32.76596392 -0.44680722 35 0 C35 0.66 35 1.32 35 2 C34.34 2 33.68 2 33 2 C32.75378906 2.86625 32.50757813 3.7325 32.25390625 4.625 C30.91170256 8.23766039 29.14872684 10.85371716 26.9375 14 C22.38773128 20.83975187 21.80256808 26.76955701 22 35 C19.03 35 16.06 35 13 35 C13.06703125 34.29359375 13.1340625 33.5871875 13.203125 32.859375 C13.37782826 21.2707256 7.31964818 13.20913945 1.08569336 3.85668945 C0 2 0 2 0 0 Z " fill="#354C8C" transform="translate(687,618)"/>
<path d="M0 0 C2.10134486 0.81141466 2.10134486 0.81141466 4.91015625 -0.44140625 C13.29407157 -1.09123958 19.73989148 -1.0303757 26.91015625 3.55859375 C26.91015625 4.87859375 26.91015625 6.19859375 26.91015625 7.55859375 C26.28109375 7.84992188 25.65203125 8.14125 25.00390625 8.44140625 C19.11045898 11.26387046 13.97965357 14.43785711 8.91015625 18.55859375 C8.91015625 17.89859375 8.91015625 17.23859375 8.91015625 16.55859375 C6.34433231 15.27568178 5.60654755 15.71115648 2.91015625 16.55859375 C1.23573235 17.20553025 -0.43286996 17.86818801 -2.08984375 18.55859375 C4.41595819 11.46135527 11.93523326 8.60974298 20.91015625 5.55859375 C17.85598812 4.54053771 15.73078664 4.4248386 12.53515625 4.43359375 C11.59929688 4.43101562 10.6634375 4.4284375 9.69921875 4.42578125 C7.00285878 4.55417934 4.53744116 4.95670666 1.91015625 5.55859375 C1.64203125 6.42484375 1.37390625 7.29109375 1.09765625 8.18359375 C-0.06096362 11.47651339 -1.47194214 14.4698725 -3.08984375 17.55859375 C-3.74984375 17.22859375 -4.40984375 16.89859375 -5.08984375 16.55859375 C-4.57421875 15.65109375 -4.05859375 14.74359375 -3.52734375 13.80859375 C-1.90506596 10.80648846 -1.90506596 10.80648846 -2.21484375 8.30859375 C-3.08725969 6.20199389 -3.08725969 6.20199389 -6.08984375 4.55859375 C-11.37083066 3.97845302 -16.53817891 4.241137 -21.65234375 5.68359375 C-22.78671875 5.97234375 -23.92109375 6.26109375 -25.08984375 6.55859375 C-25.74984375 5.89859375 -26.40984375 5.23859375 -27.08984375 4.55859375 C-26.58984375 2.74609375 -26.58984375 2.74609375 -25.08984375 0.55859375 C-16.61194978 -3.68035324 -8.71311111 -3.55798548 0 0 Z " fill="#EFEFED" transform="translate(554.08984375,342.44140625)"/>
<path d="M0 0 C1.92200482 1.62592575 2.1432391 2.81014336 2.49609375 5.265625 C2.49609375 5.925625 2.49609375 6.585625 2.49609375 7.265625 C4.67986141 8.39839768 6.86766503 9.52185289 9.05859375 10.640625 C9.66767578 10.95773437 10.27675781 11.27484375 10.90429688 11.6015625 C15.03311261 13.69873874 19.00691488 15.12166436 23.49609375 16.265625 C23.49609375 16.595625 23.49609375 16.925625 23.49609375 17.265625 C14.27974931 18.10347449 6.1619953 15.05144869 -2.50390625 12.265625 C-1.51390625 13.585625 -0.52390625 14.905625 0.49609375 16.265625 C-5.59123301 16.68544064 -8.71216936 16.43235273 -13.50390625 12.265625 C-17.43170399 7.94228791 -20.20241909 4.29536821 -20.50390625 -1.734375 C-13.23490092 -3.78503476 -6.73619676 -3.41553639 0 0 Z " fill="#F4F2EF" transform="translate(293.50390625,566.734375)"/>
<path d="M0 0 C2.64 0 5.28 0 8 0 C8 8.91 8 17.82 8 27 C13.94 27 19.88 27 26 27 C26 28.98 26 30.96 26 33 C17.42 33 8.84 33 0 33 C0 22.11 0 11.22 0 0 Z " fill="#2D4E94" transform="translate(654,619)"/>
<path d="M0 0 C11.89655172 0 11.89655172 0 16.875 4.8125 C18.42388547 7.82422174 18.46964169 9.64541648 18 13 C15.67081717 17.32562525 14.46607258 18.76696371 10 21 C6.7 21 3.4 21 0 21 C0 14.07 0 7.14 0 0 Z " fill="#EAECEF" transform="translate(540,625)"/>
<path d="M0 0 C2.97 0 5.94 0 9 0 C9 11.55 9 23.1 9 35 C6.03 35 3.06 35 0 35 C0 23.45 0 11.9 0 0 Z " fill="#3D66A3" transform="translate(628,618)"/>
<path d="M0 0 C0.33 0 0.66 0 1 0 C1 2.64 1 5.28 1 8 C4.52381687 5.45395403 4.52381687 5.45395403 7 2 C7.66 2 8.32 2 9 2 C12.42857143 10.42857143 12.42857143 10.42857143 12 15 C12.680625 14.2575 12.680625 14.2575 13.375 13.5 C15 12 15 12 17 12 C18.38226016 14.76452033 18.09525387 17.0461363 18.0625 20.125 C18.05347656 21.22070312 18.04445313 22.31640625 18.03515625 23.4453125 C18.02355469 24.28835938 18.01195312 25.13140625 18 26 C18.48210938 25.566875 18.96421875 25.13375 19.4609375 24.6875 C20.09257813 24.130625 20.72421875 23.57375 21.375 23 C22.00148438 22.443125 22.62796875 21.88625 23.2734375 21.3125 C25 20 25 20 27 20 C27.38922918 21.28745036 27.76098036 22.58019597 28.125 23.875 C28.33382812 24.59429687 28.54265625 25.31359375 28.7578125 26.0546875 C28.83773437 26.69664062 28.91765625 27.33859375 29 28 C28.34 28.66 27.68 29.32 27 30 C26.85502015 32.58064129 26.81322455 35.04943884 26.875 37.625 C26.88402344 38.33140625 26.89304687 39.0378125 26.90234375 39.765625 C26.92592397 41.51056098 26.96179539 43.25532295 27 45 C26.67 45 26.34 45 26 45 C24.77482692 39.33357449 24.90771133 33.76291482 25 28 C24.37351562 28.28875 23.74703125 28.5775 23.1015625 28.875 C21.87566406 29.431875 21.87566406 29.431875 20.625 30 C19.81289063 30.37125 19.00078125 30.7425 18.1640625 31.125 C16 32 16 32 14 32 C14 28.37 14 24.74 14 21 C12.02 21.33 10.04 21.66 8 22 C8 17.71 8 13.42 8 9 C5.3084375 10.7325 5.3084375 10.7325 2.5625 12.5 C-2.875 16 -2.875 16 -4 16 C-4 13.69 -4 11.38 -4 9 C-2.68 9 -1.36 9 0 9 C0 6.03 0 3.06 0 0 Z " fill="#EEE7DB" transform="translate(518,407)"/>
<path d="M0 0 C1.9375 1.5 1.9375 1.5 3 3 C2.67 3.33 2.34 3.66 2 4 C8.27 4.33 14.54 4.66 21 5 C17.53226679 8.46773321 12.41427164 8.87272374 7.62890625 9.125 C5.75214158 9.125 3.87552506 9.06820091 2 9 C2.33 9.99 2.66 10.98 3 12 C0.56092256 14.43907744 -0.25868942 14.34891288 -3.625 14.4375 C-8.94434127 14.34472079 -13.17694576 12.79101748 -17 9 C-17 8.01 -17 7.02 -17 6 C-15.57421875 4.6484375 -15.57421875 4.6484375 -13.6875 3.375 C-13.07261719 2.94960938 -12.45773437 2.52421875 -11.82421875 2.0859375 C-7.91540982 -0.24093377 -4.45771856 -0.31840847 0 0 Z " fill="#F3F1EF" transform="translate(309,615)"/>
<path d="M0 0 C1.485 1.98 1.485 1.98 3 4 C-6.08477009 15.39201329 -15.49024404 24.17212892 -27 33 C-27.66 32.67 -28.32 32.34 -29 32 C-29 31.34 -29 30.68 -29 30 C-29.66 29.67 -30.32 29.34 -31 29 C-30.32195313 28.52691406 -29.64390625 28.05382812 -28.9453125 27.56640625 C-17.67221713 19.55657533 -8.56508808 10.77014267 0 0 Z " fill="#E6E5E8" transform="translate(671,390)"/>
<path d="M0 0 C3.28278951 -0.88908883 5.75402815 -1.10874773 9 0 C11.57367459 3.22689149 13.45872746 6.51666562 15.37109375 10.15625 C15.90863281 11.0946875 16.44617188 12.033125 17 13 C17.66 13 18.32 13 19 13 C19 13.99 19 14.98 19 16 C18.01 16 17.02 16 16 16 C15.67 17.32 15.34 18.64 15 20 C13.68 20.33 12.36 20.66 11 21 C9.15966024 17.87907566 7.32893744 14.75261783 5.5 11.625 C4.97535156 10.73554687 4.45070313 9.84609375 3.91015625 8.9296875 C3.41386719 8.07890625 2.91757812 7.228125 2.40625 6.3515625 C1.94541016 5.56604004 1.48457031 4.78051758 1.00976562 3.97119141 C0 2 0 2 0 0 Z " fill="#3F68A8" transform="translate(687,618)"/>
<path d="M0 0 C9.92205323 -0.58365019 9.92205323 -0.58365019 14 3 C14.2475 3.804375 14.495 4.60875 14.75 5.4375 C16.77377677 9.58624239 20.82843968 10.46356112 25 12 C20.47907032 13.45606519 17.48351204 12.27032841 13 11 C13 11.66 13 12.32 13 13 C9.8104021 13.36452547 8.21968893 13.12030584 5.375 11.5625 C2.16674813 8.10096508 1.18306037 4.50140044 0 0 Z " fill="#F5F1EA" transform="translate(318,540)"/>
<path d="M0 0 C0.66 0.33 1.32 0.66 2 1 C-0.31 4.3 -2.62 7.6 -5 11 C-4.34 11 -3.68 11 -3 11 C-4.26667804 14.90559061 -5.31515306 17.06060687 -9 19 C-11.67987908 19.5287884 -14.26847502 19.77237292 -17 20 C-17.42320237 15.76797628 -17.40361534 12.95524165 -14.8125 9.5625 C-12 7 -12 7 -9.625 7.0625 C-6.1996194 6.98094332 -5.55203469 5.89308038 -3.1875 3.5 C-2.11253235 2.34481088 -1.04591776 1.1815555 0 0 Z " fill="#F5F2EC" transform="translate(401,608)"/>
<path d="M0 0 C0.33 0.66 0.66 1.32 1 2 C0.04711914 3.90429688 0.04711914 3.90429688 -1.46484375 6.21875 C-2.28879639 7.48730835 -2.28879639 7.48730835 -3.12939453 8.78149414 C-3.72606934 9.67860107 -4.32274414 10.57570801 -4.9375 11.5 C-5.5341748 12.4067749 -6.13084961 13.3135498 -6.74560547 14.24780273 C-11.63795482 21.61147002 -16.63875143 28.81224003 -23 35 C-23.66 34.67 -24.32 34.34 -25 34 C-24.34 32.35 -23.68 30.7 -23 29 C-23.66 28.67 -24.32 28.34 -25 28 C-24.49138428 27.50709473 -23.98276855 27.01418945 -23.45874023 26.50634766 C-21.11007033 24.22088143 -18.77382375 21.92308306 -16.4375 19.625 C-15.63763672 18.85027344 -14.83777344 18.07554687 -14.01367188 17.27734375 C-8.60505225 11.93495212 -4.13677515 6.37735295 0 0 Z " fill="#2B7346" transform="translate(768,622)"/>
<path d="M0 0 C0.66 0 1.32 0 2 0 C6.47692135 8.26098582 9.69745459 15.48569572 8 25 C6.48695881 28.76432953 4.39366035 30.73755977 1 33 C0.01 32.67 -0.98 32.34 -2 32 C-1.195625 31.525625 -0.39125 31.05125 0.4375 30.5625 C3.56107977 27.43892023 3.88985842 25.66646347 4.13671875 21.37109375 C3.83382045 16.11797172 1.74664827 11.92666097 -1.25 7.6875 C-1.8275 6.800625 -2.405 5.91375 -3 5 C-2 2 -2 2 0 0 Z " fill="#393670" transform="translate(713,412)"/>
<path d="M0 0 C0.33 0 0.66 0 1 0 C1 3.96 1 7.92 1 12 C2.11375 11.01 3.2275 10.02 4.375 9 C7.75 6 7.75 6 10 6 C10.38922918 7.28745036 10.76098036 8.58019597 11.125 9.875 C11.33382812 10.59429687 11.54265625 11.31359375 11.7578125 12.0546875 C11.83773437 12.69664062 11.91765625 13.33859375 12 14 C11.34 14.66 10.68 15.32 10 16 C9.85502015 18.58064129 9.81322455 21.04943884 9.875 23.625 C9.88853516 24.68460937 9.88853516 24.68460937 9.90234375 25.765625 C9.92592397 27.51056098 9.96179539 29.25532295 10 31 C9.67 31 9.34 31 9 31 C7.77482692 25.33357449 7.90771133 19.76291482 8 14 C7.37351562 14.28875 6.74703125 14.5775 6.1015625 14.875 C5.28429687 15.24625 4.46703125 15.6175 3.625 16 C2.40683594 16.556875 2.40683594 16.556875 1.1640625 17.125 C-1 18 -1 18 -3 18 C-3.33 14.04 -3.66 10.08 -4 6 C-3.01 6.33 -2.02 6.66 -1 7 C-0.67 4.69 -0.34 2.38 0 0 Z " fill="#EBE8DC" transform="translate(535,421)"/>
<path d="M0 0 C0.8971875 0.309375 0.8971875 0.309375 1.8125 0.625 C0.8125 3.625 0.8125 3.625 -1.19140625 4.80078125 C-2.03574219 5.17589844 -2.88007812 5.55101562 -3.75 5.9375 C-8.73662302 8.29089907 -12.91930833 11.15560398 -17.1875 14.625 C-17.1875 13.965 -17.1875 13.305 -17.1875 12.625 C-19.75332394 11.34208803 -20.4911087 11.77756273 -23.1875 12.625 C-24.8619239 13.2719365 -26.53052621 13.93459426 -28.1875 14.625 C-22.28177355 8.18238933 -15.82346132 5.32039475 -7.640625 2.5546875 C-0.61947223 -0.10619524 -0.61947223 -0.10619524 0 0 Z " fill="#EBE6DD" transform="translate(580.1875,346.375)"/>
<path d="M0 0 C0.66 0 1.32 0 2 0 C2 3.63 2 7.26 2 11 C-1 12 -1 12 -4 12 C-5.86263287 12.85759736 -5.86263287 12.85759736 -7.6875 14 C-9.3271875 14.99 -9.3271875 14.99 -11 16 C-11.66 15.34 -12.32 14.68 -13 14 C-10.40397238 9.5348325 -7.94749496 6.94698915 -3.5859375 4.17578125 C-1.69978909 2.91589283 -1.69978909 2.91589283 0 0 Z " fill="#F2EEE7" transform="translate(516,405)"/>
<path d="M0 0 C1.15699511 3.47098534 0.82954442 4.14733125 -0.43359375 7.44921875 C-0.75263672 8.29677734 -1.07167969 9.14433594 -1.40039062 10.01757812 C-1.74263672 10.89865234 -2.08488281 11.77972656 -2.4375 12.6875 C-2.77587891 13.58017578 -3.11425781 14.47285156 -3.46289062 15.39257812 C-4.30037307 17.59834174 -5.14632974 19.80046176 -6 22 C-6.66 21.67 -7.32 21.34 -8 21 C-8 20.01 -8 19.02 -8 18 C-11.69418201 19.231394 -13.35109746 21.20791354 -16 24 C-14.68688543 21.25298103 -13.23452204 18.75362202 -11.50390625 16.25 C-11.02759766 15.5590625 -10.55128906 14.868125 -10.06054688 14.15625 C-9.31901367 13.08890625 -9.31901367 13.08890625 -8.5625 12 C-7.82676758 10.93265625 -7.82676758 10.93265625 -7.07617188 9.84375 C-4.77598104 6.51607851 -2.46510736 3.20881771 0 0 Z " fill="#E2AE4E" transform="translate(418,540)"/>
<path d="M0 0 C1.39412109 -0.00773437 1.39412109 -0.00773437 2.81640625 -0.015625 C5.4929462 0.25561899 7.14188282 0.88883405 9.4375 2.25 C6.30997409 3.89528614 3.1321943 5.16702499 -0.1875 6.375 C-1.14914062 6.72820312 -2.11078125 7.08140625 -3.1015625 7.4453125 C-5.5625 8.25 -5.5625 8.25 -7.5625 8.25 C-7.5625 7.59 -7.5625 6.93 -7.5625 6.25 C-8.2225 6.25 -8.8825 6.25 -9.5625 6.25 C-9.8925 4.93 -10.2225 3.61 -10.5625 2.25 C-6.90115386 0.57548235 -4.0201529 -0.02236525 0 0 Z " fill="#D79838" transform="translate(566.5625,345.75)"/>
<path d="M0 0 C0.66 0.33 1.32 0.66 2 1 C1.01 2.485 1.01 2.485 0 4 C1.32 4 2.64 4 4 4 C4 3.34 4 2.68 4 2 C4.99 1.67 5.98 1.34 7 1 C5.60357379 4.49841514 4.30993996 5.74197758 0.875 7.25 C-3.72053292 9.1192441 -7.06859282 9.57533084 -12 9 C-15 7.5625 -15 7.5625 -17 6 C-17 5.67 -17 5.34 -17 5 C-16.10796875 4.80664062 -15.2159375 4.61328125 -14.296875 4.4140625 C-13.12640625 4.15367187 -11.9559375 3.89328125 -10.75 3.625 C-9.58984375 3.36976563 -8.4296875 3.11453125 -7.234375 2.8515625 C-4.08219823 2.14272416 -4.08219823 2.14272416 -1.703125 0.8359375 C-0.86007812 0.42214844 -0.86007812 0.42214844 0 0 Z " fill="#E7B04D" transform="translate(513,366)"/>
<path d="M0 0 C1.32 1.32 2.64 2.64 4 4 C2.49121909 7.12636814 0.79295485 10.09067734 -1 13.0625 C-1.7734375 14.34833984 -1.7734375 14.34833984 -2.5625 15.66015625 C-3.67060302 17.4638348 -4.82577048 19.23865572 -6 21 C-6.6084712 12.88705066 -6.32884608 7.37714367 -1 1 C-0.67 0.67 -0.34 0.34 0 0 Z " fill="#C68035" transform="translate(431,523)"/>
<path d="M0 0 C5.93799145 1.8442226 11.63346917 4.2543034 17.375 6.625 C18.39722656 7.04523438 19.41945313 7.46546875 20.47265625 7.8984375 C22.9825045 8.93052463 25.49158781 9.96442866 28 11 C23.82874115 12.25461207 21.1461045 11.48324934 16.9375 10.3125 C16.27935303 10.13041992 15.62120605 9.94833984 14.94311523 9.76074219 C9.18782161 8.13332073 3.57059601 6.17728077 -2 4 C-1.34 2.68 -0.68 1.36 0 0 Z " fill="#ECEDE0" transform="translate(364,366)"/>
<path d="M0 0 C0 3 0 3 -1.65234375 5.05078125 C-6.73935125 10.08561431 -11.86624696 14.30234746 -18 18 C-19.65 16.68 -21.3 15.36 -23 14 C-22.24976563 13.64808594 -21.49953125 13.29617188 -20.7265625 12.93359375 C-9.6275911 7.59671647 -9.6275911 7.59671647 0 0 Z " fill="#F1F0E9" transform="translate(452,456)"/>
<path d="M0 0 C4.59306496 1.4859916 7.43569245 3.85014682 11 7 C10 10 10 10 7.625 11.1875 C5 12 5 12 2 12 C1.87625 11.195625 1.7525 10.39125 1.625 9.5625 C1.315625 8.2940625 1.315625 8.2940625 1 7 C0.34 6.67 -0.32 6.34 -1 6 C-0.67 4.02 -0.34 2.04 0 0 Z " fill="#F2F2F3" transform="translate(680,390)"/>
<path d="M0 0 C0.33 0.66 0.66 1.32 1 2 C-0.31931167 4.54332317 -1.68744206 6.94172628 -3.1875 9.375 C-3.58775391 10.04789063 -3.98800781 10.72078125 -4.40039062 11.4140625 C-6.61069195 15.05371589 -8.79995234 18.13099175 -12 21 C-14.475 20.01 -14.475 20.01 -17 19 C-16.28199219 18.29101562 -15.56398438 17.58203125 -14.82421875 16.8515625 C-12.07223515 14.09860887 -9.43328934 11.2535069 -6.8125 8.375 C-5.95269531 7.43398438 -5.09289062 6.49296875 -4.20703125 5.5234375 C-1.91431852 3.01256804 -1.91431852 3.01256804 0 0 Z " fill="#DEA84F" transform="translate(414,533)"/>
<path d="M0 0 C4 3 8 6 12 9 C10.63016497 12.16115776 10.0109362 12.9927092 7 15 C6.20602761 13.75146327 5.41492783 12.50109957 4.625 11.25 C3.96371094 10.20585937 3.96371094 10.20585937 3.2890625 9.140625 C0 3.67878788 0 3.67878788 0 0 Z " fill="#CA8F45" transform="translate(290,364)"/>
<path d="M0 0 C0.99 0 1.98 0 3 0 C1.63408831 3.54243452 0.09068516 6.92627929 -1.625 10.3125 C-2.07101562 11.19550781 -2.51703125 12.07851563 -2.9765625 12.98828125 C-3.31429687 13.65214844 -3.65203125 14.31601562 -4 15 C-4.33 14.01 -4.66 13.02 -5 12 C-6.65 13.32 -8.3 14.64 -10 16 C-8.39828054 10.02285179 -6.86506186 6.11659081 -2 2 C-1.34 1.34 -0.68 0.68 0 0 Z " fill="#F2F1EF" transform="translate(560,359)"/>
<path d="M0 0 C9.9 0 19.8 0 30 0 C29.67 0.99 29.34 1.98 29 3 C28.25314941 2.98952637 27.50629883 2.97905273 26.73681641 2.96826172 C23.36624492 2.9267923 19.995727 2.90070271 16.625 2.875 C15.449375 2.85824219 14.27375 2.84148437 13.0625 2.82421875 C11.94101562 2.81777344 10.81953125 2.81132812 9.6640625 2.8046875 C8.62717285 2.79421387 7.5902832 2.78374023 6.52197266 2.77294922 C3.82891377 2.74384974 3.82891377 2.74384974 2 5 C1.34 3.35 0.68 1.7 0 0 Z " fill="#475E94" transform="translate(498,509)"/>
<path d="M0 0 C0.66 0 1.32 0 2 0 C2.67119549 1.4562545 3.33681807 2.91507867 4 4.375 C4.556875 5.59316406 4.556875 5.59316406 5.125 6.8359375 C6 9 6 9 6 11 C3.03 11 0.06 11 -3 11 C-2.44894091 7.0507432 -1.61064629 3.65079826 0 0 Z " fill="#E2E6EC" transform="translate(595,628)"/>
<path d="M0 0 C0.66 0 1.32 0 2 0 C2 2.97 2 5.94 2 9 C1.01 9.495 1.01 9.495 0 10 C0 9.34 0 8.68 0 8 C-0.598125 8.33 -1.19625 8.66 -1.8125 9 C-4 10 -4 10 -7 10 C-6.67 7.69 -6.34 5.38 -6 3 C-5.195625 2.87625 -4.39125 2.7525 -3.5625 2.625 C-2.716875 2.41875 -1.87125 2.2125 -1 2 C-0.67 1.34 -0.34 0.68 0 0 Z " fill="#F4F4F1" transform="translate(533,419)"/>
<path d="M0 0 C-3.5397007 2.35980046 -5.99106288 2.58600808 -10.1875 3.125 C-11.45980469 3.29257812 -12.73210937 3.46015625 -14.04296875 3.6328125 C-15.01878906 3.75398438 -15.99460937 3.87515625 -17 4 C-17 3.34 -17 2.68 -17 2 C-24.26 2 -31.52 2 -39 2 C-39 1.67 -39 1.34 -39 1 C-34.56262213 0.82997513 -30.12508207 0.66460204 -25.6875 0.5 C-24.44419922 0.45230469 -23.20089844 0.40460938 -21.91992188 0.35546875 C-14.60895533 0.08682431 -7.31586506 -0.06804577 0 0 Z " fill="#ECE6D0" transform="translate(417,417)"/>
<path d="M0 0 C0.66 0 1.32 0 2 0 C2.70226141 1.24176695 3.38629109 2.49385599 4.0625 3.75 C4.44535156 4.44609375 4.82820312 5.1421875 5.22265625 5.859375 C6.14543121 8.40048393 6.10489987 9.54466696 5 12 C4.01 12.33 3.02 12.66 2 13 C1.13341385 11.73760288 0.28207941 10.46472499 -0.5625 9.1875 C-1.27599609 8.12595703 -1.27599609 8.12595703 -2.00390625 7.04296875 C-3 5 -3 5 -2 2 C-1.34 1.34 -0.68 0.68 0 0 Z " fill="#373670" transform="translate(713,412)"/>
<path d="M0 0 C-6.76457772 4.47555395 -12.97984496 6.09077769 -21 7 C-21 6.34 -21 5.68 -21 5 C-19.02 5 -17.04 5 -15 5 C-15 4.34 -15 3.68 -15 3 C-15.99 2.67 -16.98 2.34 -18 2 C-18 1.67 -18 1.34 -18 1 C-15.56348622 0.63737003 -13.12623023 0.28461036 -10.6875 -0.0625 C-9.99720703 -0.16626953 -9.30691406 -0.27003906 -8.59570312 -0.37695312 C-5.30415164 -0.83808836 -3.19783876 -1.06594625 0 0 Z " fill="#EFEADB" transform="translate(516,365)"/>
<path d="M0 0 C6.93 0 13.86 0 21 0 C21 0.66 21 1.32 21 2 C17.43806458 4.37462361 15.10723598 4.50697546 11 4 C7.29018702 3.13620775 3.64400502 2.1070395 0 1 C0 0.67 0 0.34 0 0 Z " fill="#E3E6EC" transform="translate(451,708)"/>
<path d="M0 0 C0.99 1.32 1.98 2.64 3 4 C4.32 3.01 5.64 2.02 7 1 C7 3.97 7 6.94 7 10 C4.36 10 1.72 10 -1 10 C-0.67 6.7 -0.34 3.4 0 0 Z " fill="#243A7A" transform="translate(629,642)"/>
<path d="M0 0 C0.66 0.33 1.32 0.66 2 1 C-2.19926874 6.59902499 -7.25889965 10.99647161 -13 15 C-13.66 15 -14.32 15 -15 15 C-14.11428763 11.26735502 -13.49622372 9.40126733 -10.46875 6.953125 C-9.4890625 6.39109375 -8.509375 5.8290625 -7.5 5.25 C-3.49583219 2.95491115 -3.49583219 2.95491115 0 0 Z " fill="#DBA95C" transform="translate(405,534)"/>
<path d="M0 0 C5.94 0 11.88 0 18 0 C14.5965383 3.4034617 9.55827869 3.85115469 4.8515625 4.125 C3.23383832 4.125 1.6162615 4.06877709 0 4 C-0.33 3.34 -0.66 2.68 -1 2 C-0.67 1.34 -0.34 0.68 0 0 Z " fill="#EBDACC" transform="translate(312,620)"/>
<path d="M0 0 C0.66 0.33 1.32 0.66 2 1 C2.5546875 3.1796875 2.5546875 3.1796875 2.875 5.875 C3.05675781 7.20144531 3.05675781 7.20144531 3.2421875 8.5546875 C3 11 3 11 1.0078125 12.8203125 C0.34523438 13.20960938 -0.31734375 13.59890625 -1 14 C-2.33650858 9.99047425 -2.20225023 6.17983803 -2 2 C-1.34 1.34 -0.68 0.68 0 0 Z " fill="#F4F3ED" transform="translate(546,435)"/>
<path d="M0 0 C0.99 0.33 1.98 0.66 3 1 C3 1.99 3 2.98 3 4 C1.7934375 5.0828125 1.7934375 5.0828125 0.5625 6.1875 C-2.83217381 9.9133615 -2.74885135 12.06074318 -3 17 C-5 15 -5 15 -5.4375 11.3125 C-5.35542992 6.32446318 -3.12382292 3.7485875 0 0 Z " fill="#4E5186" transform="translate(485,320)"/>
<path d="M0 0 C0.66 0.33 1.32 0.66 2 1 C2.75 3.375 2.75 3.375 3 6 C2.01 7.485 2.01 7.485 1 9 C2.32 9.33 3.64 9.66 5 10 C2.36 10.33 -0.28 10.66 -3 11 C-1.68 8.03 -0.36 5.06 1 2 C-0.98 3.32 -2.96 4.64 -5 6 C-5 5.01 -5 4.02 -5 3 C-2.625 1.25 -2.625 1.25 0 0 Z " fill="#C47D3C" transform="translate(318,628)"/>
<path d="M0 0 C0.99 0.33 1.98 0.66 3 1 C1.35 2.32 -0.3 3.64 -2 5 C-1.01 5.66 -0.02 6.32 1 7 C-0.43655854 7.08131463 -1.8744483 7.13933559 -3.3125 7.1875 C-4.51326172 7.23970703 -4.51326172 7.23970703 -5.73828125 7.29296875 C-8.47851584 6.93801608 -9.29171079 6.10633718 -11 4 C-10.37351562 3.79503906 -9.74703125 3.59007812 -9.1015625 3.37890625 C-8.28429687 3.10949219 -7.46703125 2.84007812 -6.625 2.5625 C-5.81289063 2.29566406 -5.00078125 2.02882813 -4.1640625 1.75390625 C-1.98968201 1.04820271 -1.98968201 1.04820271 0 0 Z " fill="#CA8838" transform="translate(435,497)"/>
<path d="M0 0 C0.66 0.33 1.32 0.66 2 1 C-7.22551253 7.51936219 -7.22551253 7.51936219 -13 9 C-13.99 8.01 -14.98 7.02 -16 6 C-15.01257813 5.65066406 -14.02515625 5.30132812 -13.0078125 4.94140625 C-11.71351786 4.48183786 -10.41924833 4.02219877 -9.125 3.5625 C-8.47402344 3.33240234 -7.82304687 3.10230469 -7.15234375 2.86523438 C-3.51565978 1.57839884 -3.51565978 1.57839884 0 0 Z " fill="#EBE2CD" transform="translate(433,448)"/>
<path d="M0 0 C-0.7425 0.556875 -1.485 1.11375 -2.25 1.6875 C-5.08152834 3.88043842 -5.08152834 3.88043842 -7 6.75 C-9 9 -9 9 -11.75 9.3125 C-12.86375 9.1578125 -12.86375 9.1578125 -14 9 C-5.39177489 -1.7972583 -5.39177489 -1.7972583 0 0 Z " fill="#EBE3CC" transform="translate(489,445)"/>
<path d="M0 0 C1.65 0.33 3.3 0.66 5 1 C5 1.99 5 2.98 5 4 C4.01 4 3.02 4 2 4 C1.67 5.32 1.34 6.64 1 8 C-0.32 8.33 -1.64 8.66 -3 9 C-3 7.02 -3 5.04 -3 3 C-2.34 3 -1.68 3 -1 3 C-0.67 2.01 -0.34 1.02 0 0 Z " fill="#3A5C9D" transform="translate(701,630)"/>
<path d="M0 0 C1.26237731 2.52475462 1.09856404 4.31200466 1.0625 7.125 C1.05347656 8.03507812 1.04445313 8.94515625 1.03515625 9.8828125 C1.02355469 10.58148437 1.01195312 11.28015625 1 12 C0.34 12 -0.32 12 -1 12 C-1 12.66 -1 13.32 -1 14 C-1.66 14 -2.32 14 -3 14 C-3.08153933 12.41753293 -3.13943557 10.83383727 -3.1875 9.25 C-3.22230469 8.36828125 -3.25710938 7.4865625 -3.29296875 6.578125 C-2.94923684 3.55328417 -1.99772541 2.24416398 0 0 Z " fill="#D6A357" transform="translate(381,503)"/>
<path d="M0 0 C0.33 0.66 0.66 1.32 1 2 C0.19555664 3.69580078 0.19555664 3.69580078 -1.08984375 5.6953125 C-1.54423828 6.41074219 -1.99863281 7.12617187 -2.46679688 7.86328125 C-2.95212891 8.60964844 -3.43746094 9.35601563 -3.9375 10.125 C-4.41896484 10.87910156 -4.90042969 11.63320313 -5.39648438 12.41015625 C-6.59057797 14.27814425 -7.79194768 16.14102066 -9 18 C-9.33 17.34 -9.66 16.68 -10 16 C-10.66 15.67 -11.32 15.34 -12 15 C-11.46890625 14.41992188 -10.9378125 13.83984375 -10.390625 13.2421875 C-6.55640802 9.00215924 -2.99783758 4.87148607 0 0 Z " fill="#498865" transform="translate(768,622)"/>
<path d="M0 0 C0.66 0.33 1.32 0.66 2 1 C0.56771184 2.31818554 -0.87102484 3.62936704 -2.3125 4.9375 C-3.11300781 5.66839844 -3.91351562 6.39929688 -4.73828125 7.15234375 C-7 9 -7 9 -10 10 C-10.33 8.68 -10.66 7.36 -11 6 C-9.21385682 4.96953278 -7.42089982 3.95086764 -5.625 2.9375 C-4.62726562 2.36902344 -3.62953125 1.80054688 -2.6015625 1.21484375 C-1.74304688 0.81394531 -0.88453125 0.41304688 0 0 Z " fill="#D59E48" transform="translate(561,356)"/>
<path d="M0 0 C0.33 0 0.66 0 1 0 C1.33 1.65 1.66 3.3 2 5 C2.66 4.34 3.32 3.68 4 3 C3.52060632 7.71403788 3.03165952 11.66579301 1 16 C0.67 16 0.34 16 0 16 C0 10.72 0 5.44 0 0 Z " fill="#D8A24F" transform="translate(549,439)"/>
<path d="M0 0 C0 2.97 0 5.94 0 9 C-0.99 9.33 -1.98 9.66 -3 10 C-5.125 5.375 -5.125 5.375 -4 2 C-1 0 -1 0 0 0 Z " fill="#F6F6F6" transform="translate(518,407)"/>
<path d="M0 0 C1.36125 0.37125 1.36125 0.37125 2.75 0.75 C2.42 2.07 2.09 3.39 1.75 4.75 C-1.22 4.42 -4.19 4.09 -7.25 3.75 C-4.05 -0.31153846 -4.05 -0.31153846 0 0 Z " fill="#F2EEDE" transform="translate(542.25,352.25)"/>
<path d="M0 0 C0.66 1.32 1.32 2.64 2 4 C0.741875 4.020625 -0.51625 4.04125 -1.8125 4.0625 C-2.52019531 4.07410156 -3.22789062 4.08570313 -3.95703125 4.09765625 C-6 4 -6 4 -9 3 C-9 2.34 -9 1.68 -9 1 C-5.92677456 0.08941469 -3.19902639 -0.08886184 0 0 Z " fill="#D7A85C" transform="translate(425,479)"/>
<path d="M0 0 C2.31 0 4.62 0 7 0 C7 0.99 7 1.98 7 3 C4 4 4 4 1.9375 4.5 C-0.06256771 4.94398007 -0.06256771 4.94398007 -2 6 C-1.49396008 3.83125748 -1.00016187 2.00032373 0 0 Z " fill="#E0A94E" transform="translate(388,612)"/>
<path d="M0 0 C6.435 2.97 6.435 2.97 13 6 C8.97935581 7.00516105 8.40425399 7.08769462 4.875 5.625 C4.19179688 5.34914063 3.50859375 5.07328125 2.8046875 4.7890625 C1.52061734 4.22762922 0.25348905 3.62674453 -1 3 C-0.67 2.01 -0.34 1.02 0 0 Z " fill="#F2EAD9" transform="translate(330,546)"/>
<path d="M0 0 C0.33 0.99 0.66 1.98 1 3 C1.66 3 2.32 3 3 3 C1.7771055 7.89157798 0.3522544 10.34618634 -4 13 C-4.99 12.67 -5.98 12.34 -7 12 C-6.21625 11.505 -5.4325 11.01 -4.625 10.5 C-1.09968551 7.14255763 -0.86663179 4.72708251 0 0 Z " fill="#45477D" transform="translate(718,432)"/>
<path d="M0 0 C0 6 0 6 -1 8 C-3.64860427 8.59355614 -6.29197322 8.74209269 -9 9 C-6 6 -3 3 0 0 Z " fill="#E8AC4A" transform="translate(506,407)"/>
<path d="M0 0 C1.41791408 0.45445964 2.83428046 0.91374944 4.25 1.375 C5.43335938 1.75785156 5.43335938 1.75785156 6.640625 2.1484375 C8.86627958 2.95173667 10.90931672 3.89711662 13 5 C3.58997722 5.3690205 3.58997722 5.3690205 -1 3 C-0.67 2.01 -0.34 1.02 0 0 Z " fill="#EEE8D7" transform="translate(304,579)"/>
<path d="M0 0 C1.23593891 3.70781672 0.5678132 4.67510253 -0.9375 8.1875 C-1.31777344 9.08855469 -1.69804687 9.98960937 -2.08984375 10.91796875 C-2.54037109 11.94857422 -2.54037109 11.94857422 -3 13 C-5.0859375 9.3125 -5.0859375 9.3125 -4.3125 6.5 C-3.06075299 4.11571998 -1.69856845 2.08460673 0 0 Z " fill="#DCA647" transform="translate(418,540)"/>
<path d="M0 0 C0 3.50741329 -1.21024589 5.32486191 -2.9765625 8.28125 C-4.08499928 10.14274688 -5.06267219 12.04723373 -6 14 C-6.99 13.34 -7.98 12.68 -9 12 C-7.68858144 10.18671738 -6.37583526 8.37439486 -5.0625 6.5625 C-3.96615234 5.04849609 -3.96615234 5.04849609 -2.84765625 3.50390625 C-1 1 -1 1 0 0 Z " fill="#E9DFCB" transform="translate(454,515)"/>
<path d="M0 0 C0.99 0.33 1.98 0.66 3 1 C1.4198632 3.15473199 -0.10646634 5.10646634 -2 7 C-4.1640625 6.9765625 -4.1640625 6.9765625 -6.625 6.625 C-7.44226563 6.51414062 -8.25953125 6.40328125 -9.1015625 6.2890625 C-9.72804688 6.19367187 -10.35453125 6.09828125 -11 6 C-11 5.67 -11 5.34 -11 5 C-7.37 4.01 -3.74 3.02 0 2 C0 1.34 0 0.68 0 0 Z " fill="#C16D2E" transform="translate(313,625)"/>
<path d="M0 0 C2 3 2 3 1.625 5.6875 C1.41875 6.450625 1.2125 7.21375 1 8 C0.01 7.67 -0.98 7.34 -2 7 C-2.33 7.99 -2.66 8.98 -3 10 C-4 7 -4 7 -3.22265625 5.17578125 C-2.1484375 3.45052083 -1.07421875 1.72526042 0 0 Z " fill="#CF944C" transform="translate(432,544)"/>
<path d="M0 0 C2.31 0.66 4.62 1.32 7 2 C6.67 2.66 6.34 3.32 6 4 C0.72 3.67 -4.56 3.34 -10 3 C-10 2.67 -10 2.34 -10 2 C-6.7 2 -3.4 2 0 2 C0 1.34 0 0.68 0 0 Z " fill="#5C5B8B" transform="translate(572,339)"/>
<path d="M0 0 C1.32 0 2.64 0 4 0 C2.44396229 3.81936528 0.04395069 6.26044438 -3 9 C-3.66 9 -4.32 9 -5 9 C-4.67 8.01 -4.34 7.02 -4 6 C-3.34 6 -2.68 6 -2 6 C-1.34 4.02 -0.68 2.04 0 0 Z " fill="#297143" transform="translate(736,661)"/>
<path d="M0 0 C0.66 0 1.32 0 2 0 C2 2.31 2 4.62 2 7 C3.98 7.66 5.96 8.32 8 9 C6 11 6 11 1 12 C0.67 8.04 0.34 4.08 0 0 Z " fill="#E4D5B9" transform="translate(531,427)"/>
<path d="M0 0 C0.66 0.33 1.32 0.66 2 1 C1.3203125 2.890625 1.3203125 2.890625 0 5 C-2.3828125 6.046875 -2.3828125 6.046875 -5.125 6.75 C-6.03507812 6.99234375 -6.94515625 7.2346875 -7.8828125 7.484375 C-8.93082031 7.73960937 -8.93082031 7.73960937 -10 8 C-6.97727468 4.74475735 -3.74281699 2.38179263 0 0 Z " fill="#398756" transform="translate(297,676)"/>
<path d="M0 0 C1.98 0.66 3.96 1.32 6 2 C5.67 4.31 5.34 6.62 5 9 C4.34 9 3.68 9 3 9 C2.01 6.03 1.02 3.06 0 0 Z " fill="#F3E9D3" transform="translate(333,536)"/>
<path d="M0 0 C3 1 3 1 3.875 2.625 C4.06657088 6.26484677 2.56996079 8.73448156 1 12 C0.67 12 0.34 12 0 12 C0 8.04 0 4.08 0 0 Z " fill="#CC8C42" transform="translate(425,532)"/>
<path d="M0 0 C0 3 0 3 -1.53125 4.82421875 C-2.1809375 5.43910156 -2.830625 6.05398438 -3.5 6.6875 C-4.1496875 7.31011719 -4.799375 7.93273437 -5.46875 8.57421875 C-5.9740625 9.04472656 -6.479375 9.51523437 -7 10 C-7.99 9.01 -8.98 8.02 -10 7 C-9.36191406 6.57847656 -8.72382813 6.15695312 -8.06640625 5.72265625 C-7.24011719 5.17480469 -6.41382813 4.62695312 -5.5625 4.0625 C-4.73878906 3.51722656 -3.91507812 2.97195313 -3.06640625 2.41015625 C-1.10014075 1.16197019 -1.10014075 1.16197019 0 0 Z " fill="#ECE4D5" transform="translate(452,456)"/>
<path d="M0 0 C0.66 0.33 1.32 0.66 2 1 C1.125 3.4375 1.125 3.4375 -1 6 C-4.3221254 6.75964864 -7.59922821 6.92981522 -11 7 C-10.01 6.34 -9.02 5.68 -8 5 C-7.34902344 4.56300781 -6.69804688 4.12601562 -6.02734375 3.67578125 C-5.33769531 3.22589844 -4.64804687 2.77601563 -3.9375 2.3125 C-2.89916016 1.62607422 -2.89916016 1.62607422 -1.83984375 0.92578125 C-1.23269531 0.62027344 -0.62554688 0.31476563 0 0 Z " fill="#EFEBDF" transform="translate(520,368)"/>
<path d="M0 0 C2.31 1.65 4.62 3.3 7 5 C5.68 6.32 4.36 7.64 3 9 C0 3.375 0 3.375 0 0 Z " fill="#CB9657" transform="translate(290,364)"/>
<path d="M0 0 C0.57234375 0.22558594 1.1446875 0.45117188 1.734375 0.68359375 C0.1154754 1.71407412 -1.51094989 2.73274053 -3.140625 3.74609375 C-4.04554688 4.31457031 -4.95046875 4.88304687 -5.8828125 5.46875 C-6.66914062 5.86964844 -7.45546875 6.27054687 -8.265625 6.68359375 C-8.925625 6.35359375 -9.585625 6.02359375 -10.265625 5.68359375 C-9.02827516 4.64746342 -7.77517863 3.63011573 -6.515625 2.62109375 C-5.81953125 2.05261719 -5.1234375 1.48414063 -4.40625 0.8984375 C-2.265625 -0.31640625 -2.265625 -0.31640625 0 0 Z " fill="#F4EDDF" transform="translate(562.265625,354.31640625)"/>
<path d="M0 0 C4.6875 3.61328125 4.6875 3.61328125 6 5 C6 5.99 6 6.98 6 8 C3.11562221 6.70700306 1.12780579 5.34058637 -1 3 C-0.67 2.01 -0.34 1.02 0 0 Z " fill="#303674" transform="translate(699,401)"/>
<path d="M0 0 C-1.41623216 0.05447047 -2.83308191 0.09300508 -4.25 0.125 C-5.03890625 0.14820313 -5.8278125 0.17140625 -6.640625 0.1953125 C-9.20731941 -0.0171622 -10.7916067 -0.71345895 -13 -2 C-7.76481271 -3.34619102 -4.52566413 -3.01710942 0 0 Z " fill="#CA8F46" transform="translate(366,640)"/>
<path d="M0 0 C0.66 0.33 1.32 0.66 2 1 C1.67 3.97 1.34 6.94 1 10 C0.01 9.67 -0.98 9.34 -2 9 C-2.20140476 5.37471432 -1.85776765 3.13498292 0 0 Z " fill="#F3E4C8" transform="translate(303,561)"/>
<path d="M0 0 C0 0.66 0 1.32 0 2 C-1.98 2.66 -3.96 3.32 -6 4 C-6 3.01 -6 2.02 -6 1 C-6.99 0.67 -7.98 0.34 -9 0 C-5.67465243 -1.10844919 -3.37817425 -0.84454356 0 0 Z " fill="#EFF0E8" transform="translate(420,456)"/>
<path d="M0 0 C2 3 2 3 1.625 5.6875 C1.41875 6.450625 1.2125 7.21375 1 8 C0.34 8 -0.32 8 -1 8 C-1.33 9.32 -1.66 10.64 -2 12 C-1.85831863 10.56208484 -1.71148957 9.1246763 -1.5625 7.6875 C-1.48128906 6.88699219 -1.40007813 6.08648437 -1.31640625 5.26171875 C-1 3 -1 3 0 0 Z " fill="#EDE4D4" transform="translate(528,414)"/>
<path d="M0 0 C1.74965358 -0.05429959 3.49979787 -0.09292823 5.25 -0.125 C6.22453125 -0.14820313 7.1990625 -0.17140625 8.203125 -0.1953125 C11.0196498 0.00137219 12.60949036 0.55431084 15 2 C15 2.33 15 2.66 15 3 C12.69 3 10.38 3 8 3 C8 2.67 8 2.34 8 2 C5.36 1.67 2.72 1.34 0 1 C0 0.67 0 0.34 0 0 Z " fill="#D8A758" transform="translate(561,346)"/>
<path d="M0 0 C0.66 0.33 1.32 0.66 2 1 C0.95125002 3.62187494 0.35068687 4.79371361 -2.125 6.25 C-2.74375 6.4975 -3.3625 6.745 -4 7 C-4 4 -4 4 -2 1.8125 C-1.34 1.214375 -0.68 0.61625 0 0 Z " fill="#383B77" transform="translate(672,408)"/>
<path d="M0 0 C2.97851562 0.43945312 2.97851562 0.43945312 5.95703125 0.87890625 C8.2025342 1.13904799 8.2025342 1.13904799 11 0 C11.33 0.99 11.66 1.98 12 3 C8.69564916 4.12377697 6.9493138 3.89554742 3.75 2.5625 C3.04359375 2.27503906 2.3371875 1.98757813 1.609375 1.69140625 C1.07828125 1.46324219 0.5471875 1.23507812 0 1 C0 0.67 0 0.34 0 0 Z " fill="#EBBF65" transform="translate(382,376)"/>
<path d="M0 0 C0.66 0.33 1.32 0.66 2 1 C2.625 3.5625 2.625 3.5625 3 6 C2.34 6 1.68 6 1 6 C1 4.68 1 3.36 1 2 C-0.98 3.32 -2.96 4.64 -5 6 C-5 5.01 -5 4.02 -5 3 C-2.625 1.25 -2.625 1.25 0 0 Z " fill="#BC6B2A" transform="translate(318,628)"/>
<path d="M0 0 C1.32 0.33 2.64 0.66 4 1 C3.25 2.9375 3.25 2.9375 2 5 C-0.125 5.75 -0.125 5.75 -2 6 C-1.34 4.02 -0.68 2.04 0 0 Z " fill="#DCA44C" transform="translate(392,543)"/>
<path d="M0 0 C0.66 1.32 1.32 2.64 2 4 C1.34 4 0.68 4 0 4 C0.33 5.65 0.66 7.3 1 9 C-1.89932357 6.60490662 -2.50168276 4.68754757 -3 1 C-2.01 0.67 -1.02 0.34 0 0 Z " fill="#ECBD52" transform="translate(334,540)"/>
<path d="M0 0 C2.38672669 2.96283313 4.7353371 5.94270509 7 9 C5.02 8.34 3.04 7.68 1 7 C0.67 4.69 0.34 2.38 0 0 Z " fill="#CE8F4F" transform="translate(243,536)"/>
<path d="M0 0 C0.33 0 0.66 0 1 0 C1.02696365 1.79158489 1.04637917 3.58328473 1.0625 5.375 C1.07410156 6.37273437 1.08570313 7.37046875 1.09765625 8.3984375 C1 11 1 11 0 13 C-0.66 13 -1.32 13 -2 13 C-2.042721 11.33388095 -2.04063832 9.66617115 -2 8 C-1.67 7.67 -1.34 7.34 -1 7 C-0.63239269 4.67182036 -0.29758419 2.3381615 0 0 Z " fill="#ECE5D9" transform="translate(535,421)"/>
<path d="M0 0 C0.99 0.33 1.98 0.66 3 1 C0.03 4.96 0.03 4.96 -3 9 C-3.33 8.34 -3.66 7.68 -4 7 C-3.22265625 5.2734375 -3.22265625 5.2734375 -2.0625 3.375 C-1.381875 2.26125 -0.70125 1.1475 0 0 Z " fill="#393E75" transform="translate(220,369)"/>
<path d="M0 0 C1.65 1.65 3.3 3.3 5 5 C4.01 6.485 4.01 6.485 3 8 C0.9375 5.6875 0.9375 5.6875 -1 3 C-0.67 2.01 -0.34 1.02 0 0 Z " fill="#354D84" transform="translate(487,757)"/>
<path d="M0 0 C2.125 0.375 2.125 0.375 4 1 C4.33 2.65 4.66 4.3 5 6 C1.535 4.02 1.535 4.02 -2 2 C-1.34 1.34 -0.68 0.68 0 0 Z " fill="#F0E6DE" transform="translate(315,608)"/>
<path d="M0 0 C0.33 0 0.66 0 1 0 C1.39253254 4.44870215 0.15305957 7.14243493 -2 11 C-2.66 11 -3.32 11 -4 11 C-3.52269162 9.5410574 -3.04308958 8.08286504 -2.5625 6.625 C-2.29566406 5.81289063 -2.02882813 5.00078125 -1.75390625 4.1640625 C-1 2 -1 2 0 0 Z " fill="#E2B459" transform="translate(420,557)"/>
<path d="M0 0 C0.99 0.33 1.98 0.66 3 1 C2.34 2.32 1.68 3.64 1 5 C-0.65 5 -2.3 5 -4 5 C-2.68 3.35 -1.36 1.7 0 0 Z " fill="#EDECE3" transform="translate(479,449)"/>
<path d="M0 0 C0.66 0.33 1.32 0.66 2 1 C0.35 2.98 -1.3 4.96 -3 7 C-3.99 6.01 -4.98 5.02 -6 4 C-4.02 2.68 -2.04 1.36 0 0 Z " fill="#ECE1D0" transform="translate(432,519)"/>
<path d="M0 0 C0.66 0 1.32 0 2 0 C1.45912682 3.78611227 -0.11722332 5.55400767 -3 8 C-3.66 8 -4.32 8 -5 8 C-3.69955017 5.09899654 -2.29101554 3.18687847 0 1 C0 0.67 0 0.34 0 0 Z " fill="#DAA147" transform="translate(488,443)"/>
<path d="M0 0 C0 3 0 3 -1 6 C-3.0625 7.6875 -3.0625 7.6875 -5 9 C-5.66 8.67 -6.32 8.34 -7 8 C-4.69 5.36 -2.38 2.72 0 0 Z " fill="#EEE9E2" transform="translate(473,456)"/>
<path d="M0 0 C-0.3125 1.875 -0.3125 1.875 -1 4 C-1.99 4.66 -2.98 5.32 -4 6 C-4.66 5.01 -5.32 4.02 -6 3 C-2.25 0 -2.25 0 0 0 Z " fill="#F0F0F2" transform="translate(682,405)"/>
<path d="M0 0 C0.66 0.33 1.32 0.66 2 1 C0.37660195 2.70884005 -1.29319053 4.37446717 -3 6 C-3.66 6 -4.32 6 -5 6 C-4.75 4.125 -4.75 4.125 -4 2 C-2.0625 0.6875 -2.0625 0.6875 0 0 Z " fill="#D6A254" transform="translate(561,356)"/>
<path d="M0 0 C0.66 0 1.32 0 2 0 C2.33 0.99 2.66 1.98 3 3 C1.68 3.99 0.36 4.98 -1 6 C-1.66 5.67 -2.32 5.34 -3 5 C-1.625 2.5 -1.625 2.5 0 0 Z " fill="#BF703F" transform="translate(256,627)"/>
<path d="M0 0 C2 3 2 3 2 5 C0.02 5.66 -1.96 6.32 -4 7 C-2.68 4.69 -1.36 2.38 0 0 Z " fill="#D39946" transform="translate(422,614)"/>
<path d="M0 0 C0.33 0 0.66 0 1 0 C0.4140625 6.15234375 0.4140625 6.15234375 0 8 C-0.99 8.495 -0.99 8.495 -2 9 C-2.25 3.375 -2.25 3.375 0 0 Z " fill="#D09135" transform="translate(552,442)"/>
<path d="M0 0 C1.4606285 2.64738916 2 3.89448334 2 7 C-1 6 -1 6 -3 4 C-2.01 2.68 -1.02 1.36 0 0 Z " fill="#DAD9E1" transform="translate(710,439)"/>
<path d="M0 0 C-1.5625 1.5625 -1.5625 1.5625 -4 3 C-7.75 2.6875 -7.75 2.6875 -11 2 C-11 1.67 -11 1.34 -11 1 C-7.26562152 0.12132271 -3.83225427 -0.08912219 0 0 Z " fill="#EDDBB7" transform="translate(425,433)"/>
<path d="M0 0 C-0.33 0.99 -0.66 1.98 -1 3 C-3.64 2.34 -6.28 1.68 -9 1 C-5.64919071 -1.10976881 -3.77897651 -1.0497157 0 0 Z " fill="#EAE5CA" transform="translate(382,373)"/>
</svg>
